<?xml version="1.0" ?><svg enable-background="new 0 0 515.91 728.5" height="512" id="Layer_1" version="1.1" viewBox="0 0 512.00003 512" width="512" xml:space="preserve" xmlns="http://www.w3.org/2000/svg" xmlns:cc="http://creativecommons.org/ns#" xmlns:dc="http://purl.org/dc/elements/1.1/" xmlns:inkscape="http://www.inkscape.org/namespaces/inkscape" xmlns:rdf="http://www.w3.org/1999/02/22-rdf-syntax-ns#" xmlns:sodipodi="http://sodipodi.sourceforge.net/DTD/sodipodi-0.dtd" xmlns:svg="http://www.w3.org/2000/svg"><defs id="defs7"/><g id="g4064" transform="translate(248.78395,68.722659)"><path d="m -733.62329,72.267944 c 0,203.804876 -165.21649,369.021366 -369.02141,369.021366 -203.8048,0 -369.0213,-165.21649 -369.0213,-369.021366 0,-203.804874 165.2165,-369.021364 369.0213,-369.021364 203.80492,0 369.02141,165.21649 369.02141,369.021364 z" id="path4942" style="fill:#000000;fill-opacity:1;fill-rule:nonzero;stroke:none" transform="matrix(0.69372682,0,0,0.69372682,772.15023,137.14313)"/><path d="m 7.2159984,-36.722673 c -123.7116984,0 -224.0000084,100.28815 -224.0000084,223.999993 0,123.71173 100.28831,224.00003 224.0000084,224.00003 123.7118116,0 224.0000216,-100.2883 224.0000216,-224.00003 0,-123.711843 -100.28821,-223.999993 -224.0000216,-223.999993 z m -48.3350004,21.944941 c 1.7136,-0.0851 2.9057,0.53928 3.22,2.17 -2.0447,8.1113813 -17.6023,14.6857813 -18.48,25.025052 -0.3569,4.22443 2.5222,7.72318 5.705,11.34 9.6922,-6.22003 30.1909,-8.57852 45.1500004,-5.98506 15.05761,2.60413 34.4186096,16.877507 36.7150096,23.869997 7.3784,-0.28929 18.8254,-1.86412 24.92,-7.98 1.0136,-8.534727 -2.1897,-23.7059167 -6.23,-30.7649277 -1.4959,-2.60411996 -2.4583,-7.69216 5.355,-4.65507 18.1613,11.515971 28.198,30.7202617 29.365,37.6250577 3.9921,23.60187 -10.9797,43.73252 -41.09,59.01 5.2062,29.802533 -10.4076,41.546963 -18.655,48.930003 -5.0056,4.47519 -11.1918,8.96941 -12.6,15.47 -1.1756,5.40108 2.599,10.19491 4.2,16.03 3.6757,10.75211 13.8759,33.57367 1.435,48.47494 3.7605,14.61208 7.0623,32.033 18.095,42.97999 15.7683,15.63421 38.0534,18.93944 61.635,25.30496 11.410002,3.07574 33.774302,9.71498 39.620002,11.76 23.1959,6.29574 24.5469,31.18599 3.115,35.14003 1.4092,2.36478 3.535,4.0319 5.6,7.07012 -17.5063,2.60602 -34.8666,2.20539 -44.415,2.76493 -13.963702,1.30391 -45.070802,1.89819 -45.745002,-2.90493 14.3227,-6.79974 44.675402,-14.71781 45.745002,-26.4951 5.6519,-2.421 7.8049,7.37307 9.975,13.16004 9.1134,-0.5768 20.9515,-3.60718 25.445,-8.08499 0.8314,-2.01521 -1.5211,-4.2644 -3.045,-5.8101 -4.2813,-4.34023 -9.9319,-6.72886 -16.065,-8.71495 -32.474102,-7.62989 -53.292002,-11.63557 -64.645002,-13.82505 -15.2977,-2.96174 -35.3511,-15.26975 -38.64,-20.54495 0,6.36529 4.6432,17.09109 8.26,25.34 1.6213,3.69264 4.3634,7.20989 3.64,11.55 -1.1583,3.90432 -14.5089,8.27927 -22.3300096,10.99 -9.7991,3.37591 -23.5285004,5.8582 -30.4150004,6.37004 -16.7337,1.24298 -51.378,5.60034 -73.185,-3.08004 -4.031498,-1.72727 -6.030498,-4.17413 -6.859998,-7.49 -8.5936,0.6636 -34.2297,2.52135 -41.965,-5.77505 -2.02531,-2.1699 -4.12091,-5.42058 -3.46501,-9.24 1.9965,-11.64118 37.00701,-14.3388 58.380008,-16.24 9.1047,-0.82051 21.4806,-0.67862 27.335,-7.7 3.3371,-4.00255 -2.6787,-14.20464 -2.1,-15.4699 1.1767,-1.67832 6.0196,2.14357 7.91,2.24 -2.7971,-3.38475 -5.4329,-6.62054 -8.365,-10.15 -7.8124,-9.40363 -10.848,-23.01331 -3.325,-35.45505 -3.1249,-3.75189 -7.686,-6.36519 -5.95,-13.02 -3.1538,-0.0862 -8.2483,-3.07092 -7.525,-6.54495 -8.2464,2.31661 -17.063698,0.0594 -16.484998,-6.89505 -15.5861,-4.43666 -14.7131,-18.76482 -6.65,-26.63494 -3.9543,-3.42396 -8.882,-8.94589 -12.74,-11.55 -0.029,-0.0291 -8.6725,7.62272 -11.865,7.80495 -15.89471,6.28845 -38.77181,-11.88063 -40.18001,-19.63495 4.8803,0.23139 7.3057,1.40034 10.99,1.68 3.7037,0.27967 9.2625,0.1736 11.095,0 -0.5787,3.03901 -4.0781,4.60701 -4.165,7.10495 6.92501,3.35641 25.14811,1.60685 26.18001,-3.64 -3.5204,-3.51938 -8.4892,-8.59432 -11.865,-11.97 -2.0157,-0.0582 -2.3169,1.70564 -3.185,4.16505 -1.8807,-2.02541 -7.59591,-14.8988 -9.66001,-19.07505 6.69361,1.97725 13.68951,3.79411 20.05501,5.91505 -1.2828,1.17757 -5.0128,3.63552 -3.325,4.9 6.5104,3.18282 13.5371,7.44498 17.395,8.4 0.492,-1.36965 2.3122,-4.40137 2.1,-7.31505 -0.3472,-4.73458 -3.1309,-8.68527 -5.6,-12.49495 -2.1219,1.35039 -3.7462,4.95791 -6.09,4.06 -0.868,-5.20811 -1.4715,-7.11233 -2.87,-10.43 -1.5624,-3.70372 -5.5112,-6.81307 -6.09,-10.43 2.7778,-2.27729 18.713,10.0286 23.275,17.08 3.1828,4.91792 5.4562,8.56364 5.215,14.91 -0.019,3.81943 -1.9055,6.95688 -2.87,10.43 2.7488,2.60411 5.9549,5.34912 8.26,7.77 3.3274,-4.91792 10.695398,-6.74061 19.529998,-4.44505 4.4752,1.50561 6.916,6.69244 7.35,11.13 0.299,3.13453 -1.406,6.71708 -3.605,8.74999 0.3472,0.58845 0.616,1.11104 1.05,1.68 2.961,-1.39932 8.2639,-1.7762 11.9,1.99506 5.594,5.70875 15.5611,-1.19236 15.05,-13.61505 -0.8198,-1.1564 -1.6652,-2.3436 -2.485,-3.5 -7.4071,-2.79788 -17.403,-8.61751 -21.56,-13.44 -8.1113,-4.64778 -14.8171,-5.47983 -21.665,-11.58495 -9.403798,-8.3814 -12.764498,-25.60857 -6.369998,-34.125063 2.3534,-3.14406 6.219798,-6.07443 9.064998,-10.67494 2.093,-3.38632 3.6812,-6.9039 3.71,-10.67506 0.029,-4.57172 3.6695,-14.62876 4.2,-16.90494 -15.672898,-27.24668 0.8664,-44.940667 22.085,-61.24998766 5.93,-4.55875004 18.9751,-13.87008134 25.095,-14.17506134 z m 15.12,45.115053 c -3.5085,-0.0437 -6.9385,1.253726 -9.415,4.269996 6.0287,-6.234026 27.3694004,1.1359 23.835,15.05 5.7045004,-9.34394 -4.7639,-19.199706 -14.42,-19.319996 z m -25.69,8.504936 c -9.3748,0 -12.418,3.64807 -17.115,7.80506 -5.131,4.53309 -9.1849,10.92325 -12.985,17.39494 -3.9929,6.79964 -7.9109,15.5306 -6.58,22.71506 0.512,2.75632 2.1597,5.91908 4.445,8.22494 -0.1994,-0.24091 -0.3981,-0.46838 -0.595,-0.73494 -3.1538,-8.08405 3.9714,-20.15406 8.855,-21.77 l 0.63,-0.14 -0.42,1.4 c -0.6752,2.77771 -0.8275,6.35712 -0.49,7.91 0.1254,-0.84 2.1933,-5.78693 3.64,-8.96 l 0.245,-0.59506 0.28,0 c 3.7614,0.4629 6.9667,3.3852 7.42,7.73506 -0.1663,1.86323 -0.5367,3.68592 -1.015,5.42494 1.8434,-4.89742 3.2051,-10.28003 4.515,-14.38494 2.7198,-8.50674 6.5808,-16.7123 9.59,-24.92 0.8005,-2.18938 2.9171,-7.10506 -0.42,-7.10506 z m 20.125,5.04 c -6.0846,0.23543 -13.5139,6.69525 -16.59,12.53 -3.5854,5.97005 -7.8756,13.23012 -10.955,20.68506 0.1525,-0.16229 0.2926,-0.335 0.455,-0.49 2.6331,-2.13158 5.2163,-3.24576 7.56,-3.53506 l 1.225,-0.0347 -0.1052,0.21 c -1.2249,2.47878 -1.9038,7.23117 -1.19,10.11506 0.54,-3.12502 2.39,-7.3574 3.8849,-9.34506 0.9215,-0.55138 1.3564,-0.14706 2.52,0.45506 8.9496,6.50216 2.4723,38.163113 -10.15,36.854953 4.615,2.61453 10.6538,3.30366 15.82,3.11505 7.8123,-0.2894 19.614,-2.85453 24.7451,0.28 -2.3245,-2.28524 -9.6989,-2.39668 -12.11,-2.31 4.9188,-5.93163 9.2379,-15.228763 10.6749,-21.980003 3.3757,-15.96325 1.0572,-40.1427 -12.6,-46.02506 -0.9961,-0.42974 -2.0582,-0.5684 -3.1849,-0.52494 z m -46.2,56.420003 c -0.8394,0.037 -1.5689,0.1064 -2.135,0.28 -5.1213,1.41782 -9.1231,5.54334 -9.345,10.11506 -0.2604,5.51679 5.0805,10.88484 10.115,13.16 4.62,1.62132 9.86,-1.84452 15.155,-1.01505 2.0448,0.51117 3.4153,2.66739 5.46,2.97505 0.463,0.0795 0.9431,0.12992 1.435,0.14 1.4756,0.0381 3.0316,-0.24024 4.025,-1.22505 1.6782,-1.65883 2.2706,-4.73704 1.47,-6.96495 -0.3375,-0.95389 -1.8749,-2.32411 -2.415,-1.89 -0.5594,0.5796 0.8475,2.15903 1.05,3.22 0.3377,1.78517 0.112,3.07653 -1.19,4.34 -1.2924,1.26437 -2.4604,0.86868 -4.235,0.56 -1.8999,-0.3183 -3.3632,-2.48169 -5.215,-2.8 -4.4849,-1.4467 -10.7319,2.49727 -15.4,0.38495 -4.803,-2.10347 -8.2888,-5.97844 -8.26,-11.23495 0.328,-4.65841 3.6203,-6.78517 7.7,-7.87505 3.5878,-0.79084 8.6533,-0.38091 11.865,2.31 0.7523,1.32137 1.8974,0.47029 0.875,-1.01495 -1.7161,-2.49985 -7.3175,-3.62489 -10.955,-3.46506 z m -11.9,25.65506 c -0.8077,0.037 -1.4641,0.33858 -1.645,0.91 -0.5787,1.87018 3.9998,1.17119 5.215,2.69495 3.0381,3.81942 7.6579,9.16753 11.13,12.49505 7.2723,6.96259 18.7865,13.92563 27.65,13.51 1.2635,-0.0582 2.4766,-0.27832 3.605,-0.66505 7.8605,-1.77476 14.2902,-11.46992 22.575,-13.37 5.3239,-2.43052 7.6435,0.72307 11.2700004,-0.28 0.8006,-0.22087 2.0929,-0.39458 2.17,-1.22495 0.088,-0.76182 -0.9917,-1.29897 -1.715,-1.54 -4.1376004,-0.81995 -8.5139004,-0.0157 -12.2850004,0.91 -8.7961,2.36287 -13.9086,12.35898 -22.155,13.82495 -16.348,2.92241 -33.0545,-12.68389 -42.14,-25.93495 -0.5968,-0.80169 -2.329,-1.39193 -3.675,-1.33 z m 37.065,33.00495 c 0.2581,0.66796 0.4629,1.35923 0.63,2.13505 6.4957,4.02987 21.5349,1.70162 29.12,-1.64505 0.3217,-0.52159 -22.0805,6.11933 -29.75,-0.49 z m 0.91,21.97999 c -1.4548,0.0594 -2.9368,0.25816 -4.445,0.59506 -1.5269,0.54566 -8.7748,3.03162 -6.37,4.44494 2.5511,-5.03216 15.757,-5.10888 22.715,-1.82 9.0468,4.28042 14.9181,12.47468 22.47,13.33505 6.2788,0.72331 10.2720004,-1.94364 10.5700004,-2.31 0.1833,-0.23161 0.7,-1.77004 -0.63,-1.36505 -2.0071,0.61836 -3.0362004,3.065 -10.6750004,2.27505 -6.6549,-0.69529 -14.1901,-10.68244 -21.665,-13.05505 -4.0026,-1.3263 -7.2977,-2.03526 -10.535,-2.1 -0.4855,-0.0112 -0.95,-0.019 -1.435,0 z m 43.8550004,52.29 c -3.7431004,0.74177 -7.8635004,0.95502 -11.7600004,1.22505 l -1.925,1.78495 23.6600004,18.62 c 12.2384096,5.53616 12.4648096,-2.95927 6.75501,-8.50495 l -16.73001,-13.12505 z m -54.7400004,42.63 c 0.2894,1.15842 0.1926,2.64231 -0.28,4.37505 6.9347,0.47411 13.4102,1.59131 19.39,3.39495 1.1767,-1.19593 1.293,-2.80191 0.56,-4.76 -6.2498,-1.79177 -12.8415,-2.74164 -19.67,-3.01 z m 29.4,3.60495 c -0.9165,0 -1.8487,0.028 -2.765,0.0706 -0.2315,1.21329 -0.067,2.17178 0.28,3.00989 6.4621,-1.30212 16.3977,0.58352 20.545,3.25505 0.2026,-0.93565 0.3448,-1.8639 -0.07,-2.8 -5.2492,-2.37832 -11.5741,-3.5103 -17.99,-3.53505 z m 37.4150004,1.85505 c -3.43349999,0 -6.23,3.28597 -6.23,7.38495 0,4.09909 2.79540001,7.45505 6.23,7.45505 3.44331,0 6.1950096,-3.35596 6.1950096,-7.45505 0,-4.09898 -2.7516996,-7.38495 -6.1950096,-7.38495 z m -68.1800004,1.68 c -0.569,1.11944 -1.8011,1.83993 -3.325,2.38 6.0377,1.10141 11.7023,2.38728 16.38,4.27 2.1894,-0.60009 3.5695,-1.52801 4.235,-2.69495 -4.7067,-1.80376 -10.4903,-3.10576 -17.29,-3.95505 z m 28.35,2.8 c -0.7523,1.10913 -0.8422,2.21681 -0.63,3.32495 8.1885,-0.15434 13.0354,0.76394 18.34,2.90505 1.2345,-0.72329 2.2809,-1.9824 2.03,-3.32505 -6.491,-1.99539 -13.0657,-2.99231 -19.74,-2.90495 z m -35.35,1.15505 c -1.2152,0.41284 -3.261,0.80876 -5.46,1.22495 3.8387,1.47695 8.0323,2.90808 12.845,4.2 2.0737,-0.12476 4.4826,-0.25905 5.775,-0.77 -4.7162,-1.43628 -9.0223,-3.02321 -13.16,-4.65495 z m -12.53,2.1 -6.37,0.94495 c 4.9285,1.19437 9.4663,2.55013 13.44,4.13 2.7391,-0.0862 4.3759,-0.50019 5.215,-1.15495 -3.5975,-1.47469 -7.5301,-2.83997 -12.285,-3.92 z m -24.779998,1.43495 c -14.2068,1.98924 -37.7727,3.89625 -41.65001,12.28505 -2.498,4.00288 0.2059,8.48423 4.30501,11.72495 9.2398,5.28628 23.9188,5.0466 38.955,3.85 -0.8294,-3.75905 0.098,-8.57013 2.73,-11.55 -13.9851,2.24784 -39.9169,0.2828 -38.885,-2.1 0.018,-0.047 0.085,-0.41037 0.1053,-0.59505 -0.077,3.13454 31.5217,4.55828 40.53,0.98 1.8518,-1.90076 4.737898,-4.40788 7.805098,-5.91495 -2.6525,-3.7996 -7.047198,-6.79739 -13.895098,-8.68 z m 67.304998,0.98 c -2.093,0.52125 -3.6153,1.07128 -4.165,1.78505 5.8544,0.45395 11.2438,1.13827 15.96,2.1699 2.7295,-0.36411 4.3685,-0.93622 5.005,-1.68 -5.0346,-1.01058 -10.3958,-1.85215 -16.8,-2.27495 z m -10.185,2.87 c -2.5269,0.4134 -5.2155,0.84527 -7.945,1.26 6.1631,0.60749 12.0345,1.35329 15.96,3.18495 3.26,-0.51218 5.0803,-1.24746 5.495,-2.13495 -2.604,-1.17455 -7.289,-1.89492 -13.51,-2.31 z m -19.775,2.24 c -7.9473,0.6552 -16.3967,1.16155 -21.875,3.74495 -8.487398,3.98272 -14.470798,9.44238 -12.319998,18.2 1.5914,6.51021 9.396398,9.03896 17.989998,9.97509 48.1375,5.20756 85.8501004,-1.26373 110.81001,-15.29509 l 0.595,-2.8 c -0.328,-1.97748 -0.7966,-3.90466 -1.925,-5.88 -20.2928096,10.14641 -42.10521,14.50792 -64.92501,14.31505 -14.3226,4.26295 -49.6685,1.00464 -58.589998,-5.00495 12.162198,4.06046 45.078498,8.78954 58.204998,3.08 -1.4476,-12.78144 -13.9702,-19.16857 -27.965,-20.33505 z" id="path8303" style="fill:#ffffff;fill-opacity:1;fill-rule:nonzero;stroke:none"/></g></svg>