<?xml version="1.0" encoding="UTF-8" standalone="no"?>
<!-- Created with Inkscape (http://www.inkscape.org/) -->

<svg
   xmlns:dc="http://purl.org/dc/elements/1.1/"
   xmlns:cc="http://creativecommons.org/ns#"
   xmlns:rdf="http://www.w3.org/1999/02/22-rdf-syntax-ns#"
   xmlns:svg="http://www.w3.org/2000/svg"
   xmlns="http://www.w3.org/2000/svg"
   xmlns:sodipodi="http://sodipodi.sourceforge.net/DTD/sodipodi-0.dtd"
   xmlns:inkscape="http://www.inkscape.org/namespaces/inkscape"
   width="289.93768"
   height="289.93768"
   id="svg2"
   version="1.1"
   inkscape:version="0.48.4 r9939"
   sodipodi:docname="mit-gnu-scheme.svg">
  <defs
     id="defs4" />
  <sodipodi:namedview
     id="base"
     pagecolor="#ffffff"
     bordercolor="#666666"
     borderopacity="1.0"
     inkscape:pageopacity="0.0"
     inkscape:pageshadow="2"
     inkscape:zoom="4"
     inkscape:cx="130.85897"
     inkscape:cy="121.20607"
     inkscape:document-units="px"
     inkscape:current-layer="layer1"
     showgrid="false"
     inkscape:window-width="1280"
     inkscape:window-height="780"
     inkscape:window-x="-4"
     inkscape:window-y="-3"
     inkscape:window-maximized="1"
     inkscape:object-nodes="false"
     inkscape:snap-smooth-nodes="false"
     inkscape:snap-nodes="false"
     fit-margin-top="20"
     fit-margin-left="20"
     fit-margin-right="20"
     fit-margin-bottom="20" />
  <metadata
     id="metadata7">
    <rdf:RDF>
      <cc:Work
         rdf:about="">
        <dc:format>image/svg+xml</dc:format>
        <dc:type
           rdf:resource="http://purl.org/dc/dcmitype/StillImage" />
        <dc:title />
      </cc:Work>
    </rdf:RDF>
  </metadata>
  <g
     inkscape:label="Layer 1"
     inkscape:groupmode="layer"
     id="layer1"
     transform="translate(-18.549603,-255.80548)">
    <g
       style="font-size:24px;font-style:normal;font-variant:normal;font-weight:normal;font-stretch:normal;line-height:125%;letter-spacing:0px;word-spacing:0px;fill:#000000;fill-opacity:1;stroke:none;font-family:Nimbus Roman No9 L;-inkscape-font-specification:Nimbus Roman No9 L"
       id="text2996"
       transform="translate(0.08464721,0)">
      <path
         d="m 96.512577,316.36743 5.643283,6.07255 c 1.03398,1.11262 1.03507,1.43638 0.0383,2.48756 l 0.23669,0.2547 3.75345,-3.48813 -0.23669,-0.25469 c -1.04087,0.84237 -1.40295,0.82911 -2.28744,-0.12266 l -5.531163,-5.9519 c -0.884488,-0.95176 -0.872169,-1.28798 0.04507,-2.29027 l -0.236694,-0.2547 -2.667629,2.47906 3.328535,9.52274 -9.387674,-3.89192 -2.654224,2.46661 0.236694,0.25469 c 1.161511,-0.95449 1.485271,-0.95558 2.394674,0.023 l 5.057778,5.4425 c 1.28313,1.38073 1.332151,1.80984 0.294269,2.92425 l 0.236694,0.2547 3.150215,-2.92754 -0.236694,-0.25469 c -1.082027,0.90561 -1.596442,0.80907 -2.854656,-0.54485 l -5.020406,-5.40229 10.216361,4.24599 0.18768,-0.1744 -3.70647,-10.87031"
         style="font-size:18.30000114px"
         id="path3852"
         inkscape:connector-curvature="0" />
      <path
         d="m 117.17324,313.97734 c -0.71512,0.41202 -0.96897,0.36158 -2.25404,-0.40827 l -9.56493,-6.10894 -0.30427,0.2034 1.82917,9.58533 c 0.51119,2.87208 0.49135,3.23755 -0.21856,3.75615 l 0.19324,0.28906 3.0123,-2.01372 -0.19324,-0.28906 c -0.73025,0.48818 -1.16674,0.4938 -1.45151,0.0678 -0.12204,-0.18256 -0.21878,-0.42606 -0.27493,-0.67469 l -0.4901,-2.24783 3.98598,-2.66462 1.60011,1.04353 c 0.45716,0.28872 0.82808,0.61309 0.97047,0.82608 0.25425,0.38034 0.077,0.67494 -0.71917,1.22918 l 0.19324,0.28906 3.87948,-2.59343 -0.19324,-0.28905 m -9.87522,1.36259 -1.04726,-5.35333 4.56162,3.00399 -3.51436,2.34934"
         style="font-size:18.30000114px"
         id="path3854"
         inkscape:connector-curvature="0" />
      <path
         d="m 119.49238,299.4529 -0.34404,0.17125 c 0.12203,0.40942 0.0315,0.67933 -0.24698,0.81797 -0.16382,0.0815 -0.47495,0.15464 -0.81869,0.16222 -0.72032,0.0724 -1.39172,0.24303 -1.91596,0.50399 -0.70445,0.35065 -1.28665,0.98797 -1.59079,1.73217 -0.32059,0.79328 -0.27298,1.62814 0.15107,2.48003 0.65239,1.31061 1.82989,1.86922 4.14587,1.92246 1.48943,0.0354 2.67567,0.28303 3.39512,0.7017 0.25346,0.13958 0.50662,0.44284 0.70233,0.83602 0.54637,1.09763 0.10236,2.25897 -1.09356,2.85427 -1.45805,0.72578 -2.93867,0.33849 -4.75269,-1.25245 l -0.3768,0.18756 2.2203,3.22847 0.36042,-0.17941 c -0.13856,-0.31942 -0.0561,-0.64664 0.1896,-0.76896 0.18021,-0.0897 0.49133,-0.1628 0.85968,-0.20306 0.74486,-0.0641 1.46541,-0.25928 2.12071,-0.58547 1.884,-0.9378 2.69782,-2.9578 1.85788,-4.64521 -0.66869,-1.34337 -2.0998,-1.95973 -4.84129,-2.04646 -2.19315,-0.0939 -3.24003,-0.47227 -3.68039,-1.35693 -0.44851,-0.90104 -0.0703,-1.86608 0.94539,-2.37168 0.73722,-0.36696 1.58023,-0.3982 2.44719,-0.0938 0.76882,0.27144 1.2102,0.58322 1.95345,1.41932 l 0.40957,-0.20387 -2.09739,-3.31009"
         style="font-size:18.30000114px"
         id="path3856"
         inkscape:connector-curvature="0" />
      <path
         d="m 130.23512,295.19981 -0.36084,0.13223 c 0.0761,0.42039 -0.0436,0.67866 -0.33576,0.7857 -0.17183,0.063 -0.48912,0.10128 -0.83159,0.0709 -0.72391,-0.008 -1.41004,0.0879 -1.95989,0.28942 -0.73885,0.27076 -1.38785,0.83991 -1.77227,1.546 -0.4062,0.75304 -0.45103,1.58805 -0.1236,2.48155 0.50373,1.3746 1.61237,2.05978 3.90833,2.36834 1.47642,0.19958 2.62808,0.57665 3.29691,1.07217 0.2365,0.1667 0.45464,0.49606 0.60576,0.90844 0.42187,1.15123 -0.14761,2.25647 -1.40194,2.71612 -1.52926,0.5604 -2.95808,0.012 -4.5854,-1.76941 l -0.3952,0.14482 1.85036,3.45382 0.37802,-0.13852 c -0.10245,-0.33277 0.0156,-0.64889 0.27333,-0.74334 0.18901,-0.0693 0.5063,-0.10757 0.87684,-0.10693 0.74739,0.0185 1.48507,-0.0959 2.17238,-0.3478 1.976,-0.72411 3.00782,-2.64194 2.35927,-4.41175 -0.51632,-1.40897 -1.87065,-2.17953 -4.58581,-2.56834 -2.16938,-0.33545 -3.1681,-0.82703 -3.50812,-1.75489 -0.34631,-0.94504 0.13609,-1.86244 1.20141,-2.25283 0.77321,-0.28335 1.61452,-0.22134 2.44259,0.17686 0.73415,0.35464 1.13842,0.71324 1.78485,1.62627 l 0.42956,-0.15742 -1.71919,-3.52137"
         style="font-size:18.30000114px"
         id="path3858"
         inkscape:connector-curvature="0" />
      <path
         d="m 148.88084,302.81057 c -0.81501,0.13004 -1.0342,-0.008 -1.96044,-1.18493 l -6.75901,-9.11717 -0.35679,0.0816 -1.70778,9.60769 c -0.54618,2.86565 -0.69499,3.20003 -1.54313,3.43151 l 0.0775,0.33895 3.53223,-0.80767 -0.0775,-0.33895 c -0.8563,0.1958 -1.26612,0.0455 -1.38034,-0.45404 -0.0489,-0.21408 -0.0525,-0.47607 -0.0164,-0.72838 l 0.34337,-2.27487 4.67397,-1.06873 1.12302,1.54535 c 0.32421,0.43272 0.55514,0.868 0.61225,1.11775 0.10198,0.44599 -0.16866,0.65805 -1.11008,0.89209 l 0.0775,0.33895 4.5491,-1.04018 -0.0775,-0.33895 m -9.71223,-2.24705 0.92979,-5.37498 3.19116,4.4327 -4.12095,0.94228"
         style="font-size:18.30000114px"
         id="path3860"
         inkscape:connector-curvature="0" />
      <path
         d="m 159.85951,293.91339 -0.52728,-4.10535 -0.38281,0.0337 c -0.0756,0.39246 -0.34801,0.63692 -0.7126,0.66907 -0.16406,0.0145 -0.44232,-0.0161 -0.72541,-0.10139 -0.91894,-0.21292 -1.84327,-0.2784 -2.70004,-0.20286 -1.4948,0.13179 -2.95802,0.83029 -3.99984,1.93254 -1.17641,1.24272 -1.71965,2.99912 -1.54287,5.00434 0.14947,1.69532 0.83456,3.21483 1.85586,4.17193 1.19822,1.08847 2.93639,1.63333 4.74109,1.47422 2.05991,-0.1816 3.79068,-1.17926 4.77249,-2.75387 l -0.35706,-0.2992 c -1.23486,1.41321 -2.38978,2.06616 -3.90281,2.19956 -1.14844,0.10125 -2.20143,-0.17334 -3.04636,-0.79694 -1.08136,-0.80485 -1.79111,-2.39566 -1.9695,-4.41911 -0.2909,-3.2995 1.21639,-5.5818 3.85964,-5.81483 1.03907,-0.0916 2.02074,0.20763 2.8142,0.87252 0.63476,0.53191 0.9532,1.01822 1.40403,2.17259 l 0.41927,-0.037"
         style="font-size:18.30000114px"
         id="path3862"
         inkscape:connector-curvature="0" />
      <path
         d="m 165.61664,295.62919 0.17301,-3.54598 c 0.0642,-1.31604 0.27508,-1.50729 1.68875,-1.56657 l 0.017,-0.34728 -5.08136,-0.24792 -0.0169,0.34728 c 1.40118,0.19662 1.59243,0.40749 1.52822,1.72352 l -0.38615,7.91449 c -0.0749,1.53537 -0.26839,1.7458 -1.69856,1.76763 l -0.0169,0.34728 5.08136,0.24792 0.0169,-0.34728 c -1.36552,-0.17656 -1.59154,-0.42577 -1.52822,-1.72353 l 0.18371,-3.76532 5.53831,0.27022 -0.1739,3.56426 c -0.0749,1.53537 -0.2684,1.74579 -1.69856,1.76762 l -0.0169,0.34729 5.08135,0.24792 0.017,-0.34729 c -1.36552,-0.17655 -1.59155,-0.42576 -1.52823,-1.72352 l 0.39596,-8.11554 c 0.0642,-1.31604 0.27508,-1.50729 1.68875,-1.56657 l 0.0169,-0.34729 -5.08136,-0.24792 -0.0169,0.34729 c 1.40118,0.19662 1.59243,0.40749 1.52823,1.72352 l -0.17301,3.54598 -5.53832,-0.27021"
         style="font-size:18.30000114px"
         id="path3864"
         inkscape:connector-curvature="0" />
      <path
         d="m 187.47669,295.52361 c 0.35485,-1.83256 0.62611,-2.07828 2.13413,-1.97267 l 0.0661,-0.34136 -4.16818,-0.8071 -0.0661,0.34136 c 1.3805,0.37915 1.59142,0.83007 1.24353,2.6267 l -0.9393,4.85089 c -0.23657,1.22171 -0.49453,1.88008 -0.88636,2.3634 -0.65207,0.76845 -1.90976,1.10276 -3.25723,0.84184 -1.27561,-0.247 -2.07246,-0.84866 -2.39404,-1.787 -0.21207,-0.63754 -0.20912,-1.32665 0.0101,-2.45853 l 1.11325,-5.74921 c 0.25048,-1.29357 0.48638,-1.45293 1.94804,-1.30038 l 0.0661,-0.34136 -5.08445,-0.98453 -0.0661,0.34136 c 1.39846,0.38263 1.55782,0.61853 1.30386,1.93007 l -1.08541,5.60548 c -0.60185,3.10816 0.56815,4.86319 3.62241,5.4546 1.95833,0.3792 3.42756,0.0113 4.36481,-1.07473 0.5773,-0.67109 0.89903,-1.46623 1.16691,-2.84963 l 0.90799,-4.6892"
         style="font-size:18.30000114px"
         id="path3866"
         inkscape:connector-curvature="0" />
      <path
         d="m 199.32106,296.069 -0.36502,-0.12019 c -0.20117,0.37689 -0.45533,0.50513 -0.75082,0.40783 -0.17382,-0.0572 -0.44642,-0.22406 -0.69613,-0.46041 -0.563,-0.45512 -1.16034,-0.80594 -1.71657,-0.98909 -0.74742,-0.24611 -1.60952,-0.20245 -2.34911,0.11275 -0.78579,0.33852 -1.33905,0.96554 -1.63667,1.8694 -0.45788,1.39055 -0.0136,2.61578 1.5955,4.28234 1.03401,1.0726 1.70321,2.08288 1.92027,2.88648 0.082,0.27748 0.0488,0.67112 -0.0886,1.08828 -0.38347,1.16459 -1.51585,1.67799 -2.78473,1.26018 -1.54699,-0.50939 -2.32726,-1.82598 -2.4981,-4.23275 l -0.39978,-0.13164 -0.69192,3.85668 0.3824,0.12591 c 0.12613,-0.32453 0.41484,-0.49919 0.67557,-0.41334 0.1912,0.063 0.4638,0.22978 0.754,0.4602 0.57466,0.47822 1.22415,0.84622 1.91943,1.07516 1.99892,0.65819 3.99807,-0.20559 4.58758,-1.99593 0.46933,-1.42532 -0.11466,-2.86994 -2.0027,-4.85955 -1.49315,-1.60912 -1.97136,-2.61431 -1.66229,-3.55294 0.31479,-0.956 1.26233,-1.37613 2.34001,-1.02128 0.78218,0.25756 1.40348,0.8282 1.8058,1.65427 0.35569,0.73365 0.45023,1.26571 0.39065,2.38282 l 0.43455,0.14309 0.8367,-3.82827"
         style="font-size:18.30000114px"
         id="path3868"
         inkscape:connector-curvature="0" />
      <path
         d="m 208.59199,310.21602 -0.46482,-0.21564 c -1.66177,1.4078 -2.56043,1.47505 -4.93431,0.37377 l -0.44822,-0.20794 c -0.81342,-0.37736 -1.47214,-0.78382 -1.53444,-0.95394 -0.0599,-0.0883 -0.008,-0.28631 0.12254,-0.56852 l 1.90222,-4.10035 2.5565,1.186 c 1.36124,0.63151 1.51014,0.96284 1.08673,2.4408 l 0.38182,0.17713 1.7867,-3.85133 -0.38181,-0.17713 c -0.43196,0.62671 -0.61388,0.84492 -0.9043,0.99261 -0.34673,0.18209 -0.87316,0.0993 -1.65339,-0.2627 l -2.55649,-1.18601 1.70969,-3.68533 c 0.21564,-0.46481 0.36145,-0.51821 0.80967,-0.31027 l 2.24108,1.03967 c 1.87586,0.87025 2.12556,1.28869 1.71465,2.91367 l 0.41501,0.19253 1.05149,-2.39699 -8.81492,-4.0894 -0.14632,0.31541 c 1.18223,0.6695 1.29022,1.00203 0.75113,2.16407 l -3.41938,7.37066 c -0.5391,1.16204 -0.88703,1.30324 -2.13737,0.82404 l -0.14633,0.31541 8.96432,4.15872 2.04855,-2.45894"
         style="font-size:18.30000114px"
         id="path3870"
         inkscape:connector-curvature="0" />
      <path
         d="m 217.47652,305.95538 -4.82937,7.77173 c -0.82099,1.32119 -1.09821,1.38592 -2.43661,0.66197 l -0.18352,0.29532 4.53869,2.82035 0.18352,-0.29533 c -1.23593,-0.85418 -1.32797,-1.19147 -0.62289,-2.32614 l 4.93561,-7.94271 0.83935,0.52157 c 1.77195,1.10109 1.94005,1.59337 1.23509,3.5253 l 0.37304,0.23181 1.54872,-2.70034 -8.76651,-5.44752 -1.73524,2.58443 0.37304,0.23181 c 1.42585,-1.46242 1.96686,-1.5356 3.70773,-0.45382 l 0.83935,0.52157"
         style="font-size:18.30000114px"
         id="path3872"
         inkscape:connector-curvature="0" />
      <path
         d="m 227.78013,313.11696 -5.72905,7.13447 c -0.97394,1.21286 -1.25693,1.24378 -2.49854,0.3641 l -0.21771,0.27111 4.16653,3.34576 0.2177,-0.27111 c -1.12422,-0.99664 -1.17503,-1.34255 -0.33859,-2.38418 l 5.85509,-7.29142 0.77052,0.61874 c 1.62665,1.30622 1.73433,1.81514 0.80212,3.64826 l 0.34246,0.27499 1.86226,-2.49447 -8.04768,-6.46236 -2.03349,2.35697 0.34246,0.27499 c 1.59138,-1.28031 2.13728,-1.28789 3.73539,-0.005 l 0.77053,0.61873"
         style="font-size:18.30000114px"
         id="path3874"
         inkscape:connector-curvature="0" />
      <path
         d="m 240.3112,323.19732 -0.27037,-0.27311 c -0.35061,0.24411 -0.63529,0.24268 -0.85417,0.0216 -0.12874,-0.13005 -0.2956,-0.40263 -0.41043,-0.72671 -0.2943,-0.66143 -0.66664,-1.24561 -1.07863,-1.66177 -0.55362,-0.55921 -1.3412,-0.91255 -2.14321,-0.96834 -0.85378,-0.056 -1.63173,0.25061 -2.30799,0.9201 -1.04039,1.02999 -1.20217,2.32321 -0.52747,4.53937 0.43281,1.4256 0.5691,2.62972 0.39679,3.44409 -0.0532,0.28442 -0.26192,0.61982 -0.57404,0.92881 -0.87132,0.86262 -2.11329,0.80462 -3.05316,-0.14474 -1.14586,-1.15743 -1.24171,-2.68486 -0.29886,-4.90584 l -0.29612,-0.29911 -2.3708,3.11962 0.28325,0.28611 c 0.25997,-0.23162 0.59654,-0.25581 0.78966,-0.0607 0.14162,0.14306 0.30848,0.41564 0.46207,0.75286 0.29417,0.68731 0.70513,1.3105 1.22012,1.8307 1.48061,1.49556 3.65387,1.63588 4.99337,0.30977 1.0664,-1.05574 1.2036,-2.60789 0.42746,-5.23865 -0.59758,-2.11225 -0.56611,-3.22495 0.13616,-3.9202 0.71526,-0.70812 1.7502,-0.65116 2.54844,0.15515 0.57937,0.58522 0.87302,1.37605 0.85547,2.29471 -0.017,0.81515 -0.17492,1.33197 -0.73621,2.29966 l 0.32188,0.32513 2.48679,-3.02846"
         style="font-size:18.30000114px"
         id="path3876"
         inkscape:connector-curvature="0" />
    </g>
    <path
       sodipodi:type="arc"
       style="fill:none;stroke:#000000;stroke-width:1.10108805;stroke-linecap:square;stroke-linejoin:miter;stroke-miterlimit:4;stroke-opacity:1;stroke-dasharray:none"
       id="path3002"
       sodipodi:cx="141.42136"
       sodipodi:cy="420.3855"
       sodipodi:rx="98.884468"
       sodipodi:ry="98.884468"
       d="m 240.30582,420.3855 c 0,54.61238 -44.27208,98.88447 -98.88446,98.88447 -54.612388,0 -98.884472,-44.27209 -98.884472,-98.88447 0,-54.61239 44.272084,-98.88447 98.884472,-98.88447 54.61238,0 98.88446,44.27208 98.88446,98.88447 z"
       transform="matrix(0.9081926,0,0,0.9081926,35.080614,18.983332)" />
    <path
       transform="matrix(0.93601302,0,0,0.93601302,31.146212,7.2880297)"
       d="m 240.30582,420.3855 c 0,54.61238 -44.27208,98.88447 -98.88446,98.88447 -54.612388,0 -98.884472,-44.27209 -98.884472,-98.88447 0,-54.61239 44.272084,-98.88447 98.884472,-98.88447 54.61238,0 98.88446,44.27208 98.88446,98.88447 z"
       sodipodi:ry="98.884468"
       sodipodi:rx="98.884468"
       sodipodi:cy="420.3855"
       sodipodi:cx="141.42136"
       id="path3004"
       style="fill:none;stroke:#000000;stroke-width:1.06836116;stroke-linecap:square;stroke-linejoin:miter;stroke-miterlimit:4;stroke-opacity:1;stroke-dasharray:none"
       sodipodi:type="arc" />
    <path
       sodipodi:type="arc"
       style="fill:none;stroke:#000000;stroke-width:0.85900283;stroke-linecap:square;stroke-linejoin:miter;stroke-miterlimit:4;stroke-opacity:1;stroke-dasharray:none"
       id="path3006"
       sodipodi:cx="141.42136"
       sodipodi:cy="420.3855"
       sodipodi:rx="98.884468"
       sodipodi:ry="98.884468"
       d="m 240.30582,420.3855 c 0,54.61238 -44.27208,98.88447 -98.88446,98.88447 -54.612388,0 -98.884472,-44.27209 -98.884472,-98.88447 0,-54.61239 44.272084,-98.88447 98.884472,-98.88447 54.61238,0 98.88446,44.27208 98.88446,98.88447 z"
       transform="matrix(1.1641405,0,0,1.1641405,-1.1158837,-88.613449)" />
    <path
       transform="matrix(1.1947542,0,0,1.1947542,-5.4453173,-101.75922)"
       d="m 240.30582,420.3855 c 0,54.61238 -44.27208,98.88447 -98.88446,98.88447 -54.612388,0 -98.884472,-44.27209 -98.884472,-98.88447 0,-54.61239 44.272084,-98.88447 98.884472,-98.88447 54.61238,0 98.88446,44.27208 98.88446,98.88447 z"
       sodipodi:ry="98.884468"
       sodipodi:rx="98.884468"
       sodipodi:cy="420.3855"
       sodipodi:cx="141.42136"
       id="path3008"
       style="fill:none;stroke:#000000;stroke-width:1.67398441;stroke-linecap:square;stroke-linejoin:miter;stroke-miterlimit:4;stroke-opacity:1;stroke-dasharray:none"
       sodipodi:type="arc" />
    <g
       style="font-size:24px;font-style:normal;font-variant:normal;font-weight:normal;font-stretch:normal;line-height:125%;letter-spacing:0px;word-spacing:0px;fill:#000000;fill-opacity:1;stroke:none;font-family:Nimbus Roman No9 L;-inkscape-font-specification:Nimbus Roman No9 L"
       id="text3878"
       transform="translate(0.24000768,0)">
      <path
         d="m 62.225868,436.39514 c -1.303653,0.42923 -1.58664,0.27194 -2.119528,-1.17098 l -0.330259,0.10874 1.699765,5.16247 0.330259,-0.10874 c -0.417149,-1.4425 -0.265369,-1.80074 1.00352,-2.21852 l 7.717634,-2.54107 c 1.268889,-0.41778 1.574981,-0.24883 2.12525,1.18837 l 0.330259,-0.10874 -1.699764,-5.16247 -0.33026,0.10873 c 0.399554,1.50609 0.277028,1.77763 -1.009243,2.20114 l -7.717633,2.54107"
         style="font-size:18.29999924px;letter-spacing:1.14999998px"
         id="path3932"
         inkscape:connector-curvature="0" />
      <path
         d="m 66.36363,452.21675 8.748146,-4.01572 c 0.997887,-0.45806 1.689597,-0.57422 2.050859,-0.35747 0.273197,0.15649 0.446605,0.3588 0.803239,0.96025 l 0.315998,-0.14505 -1.794092,-3.90839 -0.315998,0.14505 c 0.240214,0.6549 0.280571,0.91828 0.245404,1.23646 -0.08015,0.43951 -0.610175,0.86404 -1.641325,1.33737 l -5.604801,2.5728 5.110368,-10.09817 -1.305488,-2.84398 -0.315998,0.14505 c 0.328281,0.71515 0.302111,1.00907 -0.17419,2.03315 l -7.334472,3.36678 c -1.713039,0.78635 -2.135921,0.69856 -2.869367,-0.63604 l -0.315998,0.14505 1.794092,3.9084 0.315998,-0.14506 c -0.521325,-1.31116 -0.268586,-1.76949 1.41119,-2.54056 l 6.519531,-2.9927 -5.772882,11.55004 0.129786,0.28274"
         style="font-size:18.29999924px;letter-spacing:1.14999998px"
         id="path3934"
         inkscape:connector-curvature="0" />
      <path
         d="m 82.837191,455.57813 -0.198475,-0.32908 c -0.398226,0.15469 -0.674566,0.0863 -0.835236,-0.18012 -0.09451,-0.1567 -0.192501,-0.46091 -0.227808,-0.80292 -0.130307,-0.71212 -0.354639,-1.36754 -0.657077,-1.869 -0.406402,-0.67383 -1.088655,-1.20266 -1.854989,-1.4457 -0.816577,-0.25548 -1.644861,-0.1406 -2.459726,0.35087 -1.253639,0.75609 -1.715335,1.97487 -1.581359,4.28758 0.08501,1.48742 -0.06602,2.68979 -0.425217,3.4407 -0.118656,0.2639 -0.400481,0.54072 -0.776572,0.76755 -1.049923,0.63323 -2.243328,0.28446 -2.933266,-0.85948 -0.841157,-1.39467 -0.574705,-2.90174 0.864534,-4.83831 l -0.217378,-0.36042 -3.03861,2.47377 0.207927,0.34476 c 0.30719,-0.16391 0.639992,-0.10818 0.78176,0.12688 0.103964,0.17237 0.201952,0.47658 0.271832,0.84048 0.124088,0.73724 0.376773,1.43967 0.754821,2.06649 1.086889,1.80211 3.166019,2.45014 4.780079,1.47666 1.284979,-0.77499 1.783746,-2.2512 1.648792,-4.99074 -0.08349,-2.19357 0.209063,-3.26759 1.055269,-3.77796 0.861877,-0.51981 1.854308,-0.2208 2.440283,0.75077 0.425304,0.70517 0.524516,1.54291 0.29117,2.43162 -0.208468,0.78822 -0.483585,1.25334 -1.256924,2.06169 l 0.23628,0.39177 3.12989,-2.35786"
         style="font-size:18.29999924px;letter-spacing:1.14999998px"
         id="path3936"
         inkscape:connector-curvature="0" />
      <path
         d="m 85.758958,461.53415 -7.301321,5.51482 c -1.241223,0.93751 -1.52318,0.89821 -2.511652,-0.25866 l -0.27745,0.20956 3.220653,4.26398 0.27745,-0.20957 c -0.846018,-1.24153 -0.810599,-1.58936 0.255393,-2.39452 l 7.46195,-5.63614 0.5956,0.78854 c 1.257377,1.6647 1.237181,2.1845 -0.115426,3.73362 l 0.264711,0.35046 2.416271,-1.96266 -6.220713,-8.23588 -2.548627,1.78742 0.264711,0.35046 c 1.856397,-0.85177 2.387532,-0.72547 3.62285,0.91003 l 0.5956,0.78854"
         style="font-size:18.29999924px;letter-spacing:1.14999998px"
         id="path3938"
         inkscape:connector-curvature="0" />
      <path
         d="m 84.359504,474.62961 c -1.016656,0.92204 -1.339144,0.89334 -2.412498,-0.20843 l -0.257553,0.23358 3.651291,4.02597 0.257553,-0.23359 c -0.967433,-1.14842 -0.97436,-1.53743 0.01519,-2.43488 l 6.018613,-5.4585 c 0.989545,-0.89745 1.337883,-0.86749 2.424792,0.22199 l 0.257553,-0.23359 -3.651291,-4.02596 -0.257553,0.23358 c 0.977204,1.21368 0.975621,1.51158 -0.02748,2.42133 l -6.018613,5.4585"
         style="font-size:18.29999924px;letter-spacing:1.14999998px"
         id="path3940"
         inkscape:connector-curvature="0" />
      <path
         d="m 97.388188,474.6043 -6.172999,6.75401 c -1.049408,1.14818 -1.333805,1.16096 -2.516698,0.20378 l -0.234574,0.25665 3.944339,3.60503 0.234574,-0.25665 c -1.058272,-1.0664 -1.086887,-1.41485 -0.18563,-2.40093 l 6.308805,-6.9026 0.729432,0.66669 c 1.539913,1.40744 1.614863,1.9222 0.567483,3.69204 l 0.3242,0.2963 2.01777,-2.37044 -7.61852,-6.96314 -2.179868,2.22228 0.324192,0.29631 c 1.669904,-1.17607 2.215166,-1.14876 3.728061,0.23399 l 0.729433,0.66668"
         style="font-size:18.29999924px;letter-spacing:1.14999998px"
         id="path3942"
         inkscape:connector-curvature="0" />
      <path
         d="m 109.98865,486.83598 c 1.06701,-1.53156 1.41457,-1.64627 2.75043,-0.93863 l 0.19876,-0.2853 -3.48356,-2.42692 -0.19875,0.28529 c 1.10843,0.90604 1.11853,1.40375 0.0725,2.90529 l -2.82444,4.05413 c -0.71134,1.02104 -1.21396,1.5184 -1.76803,1.80149 -0.90754,0.43829 -2.19281,0.23427 -3.31896,-0.5503 -1.06608,-0.74272 -1.550776,-1.61567 -1.464528,-2.60384 0.06447,-0.66878 0.346418,-1.29758 1.005458,-2.24354 l 3.34748,-4.80491 c 0.75318,-1.0811 1.03342,-1.1312 2.30787,-0.39943 l 0.19876,-0.2853 -4.24934,-2.96042 -0.19876,0.28529 c 1.12345,0.9165 1.17355,1.19674 0.4099,2.29285 l -3.263791,4.68479 c -1.80973,2.59764 -1.451281,4.67624 1.101321,6.45458 1.63667,1.14024 3.12895,1.39927 4.42589,0.7862 0.79972,-0.37958 1.41606,-0.97614 2.22155,-2.13232 l 2.73029,-3.919"
         style="font-size:18.29999924px;letter-spacing:1.14999998px"
         id="path3944"
         inkscape:connector-curvature="0" />
      <path
         d="m 116.63567,488.31502 -4.18445,8.13713 c -0.71136,1.38331 -0.98244,1.47027 -2.37504,0.85702 l -0.15901,0.30921 4.75208,2.44372 0.15901,-0.30921 c -1.30101,-0.75134 -1.42006,-1.08008 -0.80913,-2.26809 l 4.27651,-8.31615 0.87881,0.45192 c 1.85527,0.95406 2.06266,1.43111 1.51639,3.41376 l 0.39058,0.20086 1.32507,-2.81684 -9.17868,-4.72006 -1.52036,2.71641 0.39058,0.20085 c 1.30279,-1.57304 1.83611,-1.68977 3.65883,-0.75245 l 0.87881,0.45192"
         style="font-size:18.29999924px;letter-spacing:1.14999998px"
         id="path3946"
         inkscape:connector-curvature="0" />
      <path
         d="m 129.64881,502.75031 -0.48052,-0.17789 c -1.54426,1.53579 -2.4347,1.67447 -4.88882,0.76593 l -0.46336,-0.17154 c -0.84092,-0.31132 -1.52995,-0.66398 -1.60561,-0.82858 -0.0667,-0.0833 -0.0312,-0.28474 0.0768,-0.57649 l 1.5693,-4.23894 2.6429,0.97843 c 1.40726,0.52099 1.58209,0.83939 1.27785,2.34641 l 0.39472,0.14612 1.474,-3.98151 -0.39472,-0.14613 c -0.38062,0.65916 -0.54457,0.89117 -0.82229,1.06155 -0.33112,0.20915 -0.86247,0.16855 -1.66907,-0.13007 l -2.6429,-0.97843 1.41046,-3.80989 c 0.1779,-0.48053 0.31899,-0.54538 0.78236,-0.37384 l 2.31683,0.85772 c 1.93926,0.71794 2.22152,1.11514 1.94146,2.7677 l 0.42904,0.15884 0.85706,-2.47319 -9.11286,-3.37367 -0.12071,0.32607 c 1.23184,0.57312 1.36599,0.89598 0.92125,2.0973 l -2.82093,7.61979 c -0.44474,1.20132 -0.7803,1.3698 -2.06487,0.9918 l -0.12072,0.32608 9.26732,3.43086 1.846,-2.61443"
         style="font-size:18.29999924px;letter-spacing:1.14999998px"
         id="path3948"
         inkscape:connector-curvature="0" />
      <path
         d="m 144.20071,496.6515 c -3.43718,-0.63476 -6.36316,1.50464 -7.03116,5.12177 -0.3124,1.69159 -0.039,3.43555 0.74005,4.65877 0.83437,1.32648 2.30638,2.32409 3.89,2.61655 3.54515,0.65471 6.45784,-1.41271 7.12584,-5.02984 0.32902,-1.78158 0.0896,-3.40759 -0.70073,-4.67012 -0.90442,-1.45107 -2.29642,-2.37808 -4.024,-2.69713 m -0.11964,0.64785 c 0.8278,0.15287 1.59578,0.62967 2.13728,1.32517 0.80892,1.06125 1.05439,2.85588 0.65891,4.99736 -0.19608,1.06175 -0.65934,2.26025 -1.19207,3.12956 -0.24505,0.41998 -0.63406,0.81338 -1.1244,1.15084 -0.74616,0.51353 -1.61579,0.6879 -2.56956,0.51176 -0.8278,-0.15288 -1.57779,-0.62635 -2.10462,-1.30053 -0.7829,-1.00062 -1.04109,-2.92786 -0.6722,-4.92538 0.33899,-1.83556 1.16524,-3.48809 2.07725,-4.19431 0.84474,-0.6442 1.79965,-0.87726 2.78941,-0.69447"
         style="font-size:18.29999924px;letter-spacing:1.14999998px"
         id="path3950"
         inkscape:connector-curvature="0" />
      <path
         d="m 158.70002,506.56074 0.33909,-4.23204 -0.41956,-0.0336 c -0.33582,1.44178 -0.6861,1.6891 -2.14542,1.57217 l -2.64502,-0.21193 0.32447,-4.04962 c 0.0409,-0.51076 0.1409,-0.6129 0.63342,-0.57344 l 2.48085,0.19878 c 2.06129,0.16516 2.44069,0.47094 2.61925,2.13752 l 0.45604,0.0365 0.15428,-2.61293 -9.68626,-0.7761 -0.0278,0.34659 c 1.3411,0.21761 1.55778,0.49199 1.45547,1.7689 l -0.63286,7.89858 c -0.12131,1.51405 -0.34097,1.73511 -1.73464,1.71524 l -0.0278,0.34659 5.10763,0.40924 0.0278,-0.34658 c -1.39875,-0.18551 -1.63367,-0.46136 -1.52843,-1.77475 l 0.31862,-3.97665 2.64503,0.21193 c 1.47756,0.11839 1.76574,0.41686 1.86625,1.91196 l 0.41956,0.0336"
         style="font-size:18.29999924px;letter-spacing:1.14999998px"
         id="path3952"
         inkscape:connector-curvature="0" />
      <path
         d="m 170.66566,499.44404 0.51616,9.13543 c 0.0877,1.55302 -0.10188,1.76535 -1.6132,1.94239 l 0.0196,0.34715 5.33509,-0.30144 -0.0196,-0.34715 c -1.50234,0.0116 -1.77156,-0.2115 -1.84692,-1.54527 l -0.52751,-9.33641 0.98662,-0.0557 c 2.08288,-0.11768 2.50342,0.18849 3.03721,2.17453 l 0.4385,-0.0248 -0.28512,-3.09985 -10.30477,0.58223 0.0659,3.11224 0.4385,-0.0248 c 0.32598,-2.0163 0.7266,-2.38719 2.77293,-2.50281 l 0.98663,-0.0557"
         style="font-size:18.29999924px;letter-spacing:1.14999998px"
         id="path3954"
         inkscape:connector-curvature="0" />
      <path
         d="m 189.25774,505.44432 -0.50544,0.0842 c -0.57779,2.09989 -1.28183,2.66243 -3.86315,3.09244 l -0.48738,0.0812 c -0.88451,0.14735 -1.6577,0.18339 -1.80511,0.0781 -0.0993,-0.0391 -0.16846,-0.23166 -0.21958,-0.53853 l -0.74275,-4.45866 2.77989,-0.4631 c 1.4802,-0.24658 1.79006,-0.057 2.27432,1.40214 l 0.41517,-0.0692 -0.69764,-4.18789 -0.41518,0.0692 c -0.003,0.76115 -0.0302,1.04395 -0.18663,1.32975 -0.18355,0.34596 -0.66493,0.57457 -1.51333,0.7159 l -2.7799,0.4631 -0.66757,-4.00738 c -0.0842,-0.50543 0.006,-0.63178 0.49345,-0.71297 l 2.43691,-0.40596 c 2.03979,-0.33981 2.48203,-0.13519 3.05954,1.4383 l 0.45128,-0.0752 -0.48417,-2.57231 -9.58521,1.59678 0.0571,0.34297 c 1.35383,-0.11422 1.6306,0.0994 1.84109,1.36299 l 1.33516,8.01475 c 0.21049,1.26359 0.003,1.57646 -1.29982,1.88623 l 0.0571,0.34298 9.74767,-1.62384 0.30411,-3.18598"
         style="font-size:18.29999924px;letter-spacing:1.14999998px"
         id="path3956"
         inkscape:connector-curvature="0" />
      <path
         d="m 199.70377,497.11224 -1.33431,-3.91812 -0.36842,0.10932 c 0.004,0.39965 -0.2142,0.69347 -0.56508,0.79758 -0.15789,0.0468 -0.43667,0.0723 -0.73106,0.0451 -0.94295,-0.0257 -1.8618,0.0943 -2.68637,0.33892 -1.43861,0.42683 -2.7334,1.40274 -3.53484,2.6904 -0.90536,1.4521 -1.08794,3.28151 -0.51535,5.21135 0.4841,1.6316 1.45808,2.98423 2.64953,3.71877 1.39099,0.82805 3.20285,1.01583 4.93971,0.5005 1.98248,-0.5882 3.4799,-1.91056 4.12845,-3.64915 l -0.40948,-0.2221 c -0.92869,1.63083 -1.93044,2.5007 -3.38659,2.93274 -1.10528,0.32794 -2.19186,0.26856 -3.14405,-0.17429 -1.21999,-0.57337 -2.23234,-1.99097 -2.81013,-3.93836 -0.94216,-3.17547 0.0804,-5.71223 2.6243,-6.467 1.00002,-0.29671 2.02162,-0.19896 2.9316,0.29459 0.72798,0.39484 1.13689,0.808 1.80857,1.84946 l 0.40352,-0.11972"
         style="font-size:18.29999924px;letter-spacing:1.14999998px"
         id="path3958"
         inkscape:connector-curvature="0" />
      <path
         d="m 204.74518,496.82159 -1.47617,-3.22876 c -0.54785,-1.1983 -0.44848,-1.46507 0.77977,-2.16747 l -0.14457,-0.31622 -4.62677,2.11533 0.14457,0.31622 c 1.33478,-0.4694 1.60156,-0.37003 2.14941,0.82827 l 3.29474,7.20645 c 0.63916,1.39801 0.56404,1.67382 -0.69607,2.35055 l 0.14457,0.31622 4.62677,-2.11533 -0.14457,-0.31622 c -1.29388,0.47082 -1.60916,0.35338 -2.14941,-0.82828 l -1.56747,-3.42847 5.04285,-2.30555 1.48377,3.24539 c 0.63916,1.39802 0.56404,1.67383 -0.69607,2.35055 l 0.14457,0.31622 4.62677,-2.11533 -0.14457,-0.31622 c -1.29388,0.47083 -1.60916,0.35339 -2.14941,-0.82827 l -3.37844,-7.38952 c -0.54785,-1.1983 -0.44848,-1.46508 0.77977,-2.16748 l -0.14457,-0.31622 -4.62677,2.11533 0.14457,0.31622 c 1.33478,-0.4694 1.60156,-0.37002 2.14941,0.82828 l 1.47617,3.22875 -5.04285,2.30556"
         style="font-size:18.29999924px;letter-spacing:1.14999998px"
         id="path3960"
         inkscape:connector-curvature="0" />
      <path
         d="m 226.55605,492.39247 -5.23993,-8.0746 c -0.59771,-0.92106 -0.81279,-1.58866 -0.65062,-1.9775 0.11529,-0.29298 0.29036,-0.49385 0.83385,-0.9338 l -0.18928,-0.29167 -3.60747,2.34103 0.18927,0.29167 c 0.61323,-0.33249 0.86799,-0.41056 1.18791,-0.42183 0.44648,0.0157 0.94327,0.47866 1.5609,1.43042 l 3.35714,5.17327 -10.73165,-3.59456 -2.62501,1.70348 0.18927,0.29166 c 0.66009,-0.42835 0.9547,-0.44501 2.03695,-0.12199 l 4.39317,6.76977 c 1.02606,1.58115 1.00043,2.01228 -0.21393,2.93122 l 0.18927,0.29167 3.60748,-2.34103 -0.18928,-0.29167 c -1.22187,0.70566 -1.71196,0.52194 -2.7181,-1.02851 l -3.90504,-6.01757 12.26413,4.03989 0.26097,-0.16935"
         style="font-size:18.29999924px;letter-spacing:1.14999998px"
         id="path3962"
         inkscape:connector-curvature="0" />
      <path
         d="m 225.92131,476.73893 c -2.63453,2.29704 -2.77863,5.91887 -0.36133,8.69133 1.13048,1.29657 2.66626,2.16693 4.10863,2.31752 1.55768,0.17145 3.25432,-0.36096 4.46813,-1.41928 2.71729,-2.36919 2.90949,-5.93585 0.4922,-8.70831 -1.19061,-1.36554 -2.61286,-2.18921 -4.09308,-2.35536 -1.6988,-0.19408 -3.29039,0.31957 -4.61455,1.4741 m 0.43295,0.49656 c 0.63449,-0.55321 1.48546,-0.85814 2.36687,-0.8497 1.33413,0.0265 2.8922,0.95021 4.32334,2.59161 0.70955,0.81381 1.36006,1.92189 1.70956,2.87968 0.17652,0.45307 0.24269,1.00235 0.20205,1.5962 -0.0618,0.90369 -0.46607,1.69316 -1.19712,2.33056 -0.63449,0.55321 -1.47167,0.84611 -2.32725,0.83944 -1.27047,-0.009 -2.94031,-1.00538 -4.27524,-2.53644 -1.22668,-1.40692 -2.00703,-3.08162 -1.99295,-4.23501 0.0208,-1.06214 0.4321,-1.95489 1.19074,-2.61634"
         style="font-size:18.29999924px;letter-spacing:1.14999998px"
         id="path3964"
         inkscape:connector-curvature="0" />
      <path
         d="m 244.44439,470.90738 c 0.31007,0.69586 0.45242,1.16759 0.5008,1.57965 0.10381,0.95333 -0.32285,1.92261 -1.33682,3.05351 l -0.81851,0.91288 c -0.89181,0.99464 -1.13238,1.09847 -1.60926,0.67089 l -6.44472,-5.77842 c -0.96739,-0.86737 -0.98711,-1.22916 -0.0901,-2.36663 l -0.25888,-0.23212 -3.44506,3.84231 0.25888,0.23211 c 0.98577,-0.93496 1.33534,-0.94106 2.28911,-0.0859 l 6.04958,5.42414 c 0.95377,0.85516 0.98711,1.22916 0.16343,2.28488 l 0.25888,0.23212 6.5725,-7.33036 -1.78439,-2.77969 -0.30541,0.34063"
         style="font-size:18.29999924px;letter-spacing:1.14999998px"
         id="path3966"
         inkscape:connector-curvature="0" />
      <path
         d="m 241.78368,459.08055 c -2.02413,2.84957 -1.31702,6.40463 1.68173,8.53473 1.40241,0.99616 3.09918,1.48312 4.53675,1.29214 1.55457,-0.19766 3.0796,-1.11217 4.01218,-2.42506 2.08771,-2.93908 1.44029,-6.45175 -1.55847,-8.58185 -1.477,-1.04915 -3.05246,-1.51729 -4.53048,-1.33258 -1.69706,0.20868 -3.12435,1.08038 -4.14171,2.51262 m 0.53709,0.38151 c 0.48749,-0.68628 1.24352,-1.18181 2.10244,-1.37978 1.30331,-0.28635 3.03424,0.24732 4.80962,1.50842 0.88024,0.62526 1.77189,1.55044 2.33574,2.39989 0.2776,0.39921 0.47042,0.91778 0.56982,1.50466 0.15126,0.89309 -0.0571,1.75521 -0.61875,2.54592 -0.48749,0.68629 -1.23292,1.16689 -2.06633,1.36054 -1.23735,0.28831 -3.09391,-0.2897 -4.74994,-1.46603 -1.52176,-1.08094 -2.67219,-2.52664 -2.9283,-3.65133 -0.22822,-1.03754 -0.0372,-2.00173 0.5457,-2.82229"
         style="font-size:18.29999924px;letter-spacing:1.14999998px"
         id="path3968"
         inkscape:connector-curvature="0" />
      <path
         d="m 256.89225,445.36781 -2.24939,4.08857 0.28861,0.15878 c 0.4274,-0.66298 0.58136,-0.82892 0.81548,-0.95075 0.27662,-0.16112 0.69832,-0.0544 1.38777,0.32488 l 2.59745,1.42902 c 0.51307,0.28228 0.40789,1.4985 -0.22723,2.65292 -1.43785,2.61348 -4.1478,3.21124 -7.13005,1.5705 -1.50716,-0.82918 -2.71923,-2.08085 -3.11675,-3.21857 -0.39752,-1.13771 -0.28351,-2.36997 0.31632,-3.46026 0.49399,-0.89788 1.23086,-1.51593 2.1521,-1.82368 0.71357,-0.23401 1.28762,-0.25238 2.4862,-0.11513 l 0.20289,-0.36877 -3.45367,-1.733 -0.19406,0.35274 c 0.25171,0.26381 0.3174,0.67591 0.13216,1.01261 -0.0882,0.16034 -0.27745,0.39042 -0.54847,0.61727 -0.63746,0.5892 -1.1715,1.25618 -1.56845,1.97769 -1.76423,3.20672 -0.66871,6.79625 2.60215,8.59576 1.5713,0.86447 3.01199,1.09315 4.45196,0.71571 1.69733,-0.46559 3.15345,-1.66962 4.12377,-3.43332 0.75862,-1.37889 1.30009,-3.69183 1.09175,-4.64192 l -3.25482,-1.79069 c -0.94599,-0.52045 -1.04857,-0.82753 -0.61711,-1.80158 l -0.28861,-0.15878"
         style="font-size:18.29999924px;letter-spacing:1.14999998px"
         id="path3970"
         inkscape:connector-curvature="0" />
      <path
         d="m 256.80459,430.75455 -1.50216,3.71554 0.32235,0.13032 c 0.37365,-0.87537 0.62598,-1.10891 1.03316,-0.94429 0.16966,0.0686 0.33895,0.23573 0.53171,0.49131 l 2.85343,3.97629 -4.78158,0.98822 c -0.34691,0.0769 -0.67648,0.0621 -0.86311,-0.0134 -0.30539,-0.12347 -0.36205,-0.42272 -0.17649,-0.97935 0.0274,-0.0679 0.096,-0.23752 0.15451,-0.43101 l -0.32235,-0.13032 -1.92056,4.75045 0.32235,0.13033 c 0.36317,-0.80065 0.69672,-0.94214 3.77483,-1.67159 l 4.156,-0.90557 2.95207,1.19349 c 1.47603,0.59675 1.5771,0.835 1.02078,2.40633 l 0.32235,0.13033 2.09891,-5.19157 -0.32235,-0.13032 c -0.6444,1.49624 -0.94402,1.65146 -2.23343,1.13016 l -3.29138,-1.33068 -2.81914,-4.06112 c -1.07459,-1.63853 -1.2695,-2.23055 -0.98755,-3.12324 l -0.32235,-0.13033"
         style="font-size:18.29999924px;letter-spacing:1.14999998px"
         id="path3972"
         inkscape:connector-curvature="0" />
    </g>
    <text
       xml:space="preserve"
       style="font-size:24px;font-style:normal;font-variant:normal;font-weight:normal;font-stretch:normal;line-height:125%;letter-spacing:0px;word-spacing:0px;fill:#000000;fill-opacity:1;stroke:none;font-family:Nimbus Roman No9 L;-inkscape-font-specification:Nimbus Roman No9 L"
       x="107.81197"
       y="369.00021"
       id="text3997"
       sodipodi:linespacing="125%"><tspan
         sodipodi:role="line"
         id="tspan3999"
         x="107.81197"
         y="369.00021"
         style="font-size:16px">(Y F) = (F (Y F))</tspan></text>
    <g
       style="font-size:24px;font-style:normal;font-variant:normal;font-weight:normal;font-stretch:normal;line-height:125%;letter-spacing:0px;word-spacing:0px;fill:#000000;fill-opacity:1;stroke:none;font-family:Nimbus Roman No9 L;-inkscape-font-specification:Nimbus Roman No9 L"
       id="text4001">
      <path
         d="m 149.45659,432.41812 1.19531,0 c -3e-5,3.4974 -0.57555,6.04297 -1.72656,7.63672 -1.12894,1.59375 -2.5456,2.39062 -4.25,2.39063 -1.39456,-10e-6 -2.73375,-0.52019 -4.01758,-1.56055 -1.28388,-1.0625 -2.43492,-3.88476 -3.45312,-8.4668 l -2.85547,-12.88281 -9.89453,22.44531 -6.2754,0 14.21094,-30.61328 c -0.75262,-3.9622 -1.66017,-6.89514 -2.72265,-8.79883 -1.06252,-1.9036 -2.37957,-2.85542 -3.95118,-2.85547 -1.26172,5e-5 -2.36849,0.48702 -3.32031,1.46094 -0.92969,0.95186 -1.44987,2.43493 -1.56055,4.44922 l -1.19531,0 c 0.0664,-3.25387 0.7194,-5.85478 1.95899,-7.80273 1.23957,-1.97001 2.78905,-2.95504 4.64843,-2.95508 1.19531,4e-5 2.32421,0.49809 3.38672,1.49414 1.08463,0.974 2.01431,2.65629 2.78907,5.04687 0.79685,2.36853 2.02537,7.29366 3.68554,14.77539 l 2.35742,10.52539 c 0.95181,4.36069 1.9479,7.28256 2.98829,8.76563 1.06247,1.46094 2.32419,2.19141 3.78515,2.19141 2.47914,0 3.88474,-1.7487 4.2168,-5.2461"
         style="font-size:68px;fill:#000000"
         id="path3421" />
    </g>
    <path
       style="fill:none;stroke:#000000;stroke-width:2;stroke-linecap:butt;stroke-linejoin:round;stroke-miterlimit:4;stroke-opacity:1;stroke-dasharray:none"
       d="m 103.7963,407.88687 0,-65.67901 c 0,0 26.38888,21.40432 59.81481,0 33.42593,21.40432 59.81481,0 59.81481,0 l 0,65.67901 c 2.34568,60.40123 -53.07098,63.33333 -59.81481,73.30247 -6.74383,-9.96914 -62.16049,-12.90124 -59.81481,-73.30247 z"
       id="path4120"
       inkscape:connector-curvature="0"
       sodipodi:nodetypes="ccccccc" />
    <text
       sodipodi:linespacing="125%"
       id="text4169"
       y="399.02515"
       x="155.29356"
       style="font-size:12.12077999px;font-style:normal;font-variant:normal;font-weight:normal;font-stretch:normal;line-height:125%;letter-spacing:0px;word-spacing:0px;fill:#000000;fill-opacity:1;stroke:none;font-family:Nimbus Roman No9 L;-inkscape-font-specification:Nimbus Roman No9 L"
       xml:space="preserve"><tspan
         style="font-size:8.08052063px"
         y="399.02515"
         x="155.29356"
         id="tspan4171"
         sodipodi:role="line">(Y F) = (F (Y F))</tspan></text>
    <g
       style="font-size:12.12077999px;font-style:normal;font-variant:normal;font-weight:normal;font-stretch:normal;line-height:125%;letter-spacing:0px;word-spacing:0px;fill:#000000;fill-opacity:1;stroke:none;font-family:Nimbus Roman No9 L;-inkscape-font-specification:Nimbus Roman No9 L"
       id="text4173">
      <path
         d="m 176.32544,431.05326 0.60368,0 c -2e-5,1.7663 -0.29068,3.05189 -0.87197,3.85679 -0.57015,0.80489 -1.28562,1.20734 -2.14639,1.20734 -0.7043,0 -1.38063,-0.26271 -2.02901,-0.78813 -0.6484,-0.53659 -1.22971,-1.96193 -1.74394,-4.276 l -1.4421,-6.50624 -4.99706,11.33561 -3.16928,0 7.17698,-15.4607 c -0.38009,-2.00104 -0.83843,-3.48227 -1.37503,-4.4437 -0.5366,-0.96138 -1.20175,-1.44208 -1.99547,-1.4421 -0.63721,2e-5 -1.19616,0.24596 -1.67686,0.73782 -0.46953,0.48072 -0.73223,1.22972 -0.78813,2.247 l -0.60367,0 c 0.0335,-1.64331 0.36332,-2.95685 0.98935,-3.94063 0.62603,-0.99492 1.40856,-1.49239 2.34761,-1.49241 0.60367,2e-5 1.1738,0.25155 1.71041,0.75459 0.54777,0.4919 1.01729,1.34151 1.40856,2.54883 0.40244,1.19618 1.02288,3.68353 1.86132,7.46205 l 1.19058,5.31567 c 0.48069,2.20229 0.98375,3.67793 1.50918,4.42692 0.53658,0.73783 1.17379,1.10674 1.91162,1.10673 1.25205,1e-5 1.96192,-0.88314 2.12962,-2.64944"
         style="font-size:34.34220886px;fill:#000000"
         id="path3413" />
    </g>
    <path
       sodipodi:nodetypes="ccccccc"
       inkscape:connector-curvature="0"
       id="path4177"
       d="m 153.26552,418.66418 0,-33.17004 c 0,0 13.32724,10.80988 30.20842,0 16.88118,10.80988 30.20842,0 30.20842,0 l 0,33.17004 c 1.18465,30.50458 -26.80257,31.98539 -30.20842,37.02013 -3.40585,-5.03474 -31.39307,-6.51555 -30.20842,-37.02013 z"
       style="fill:none;stroke:#000000;stroke-width:1.01006508;stroke-linecap:butt;stroke-linejoin:round;stroke-miterlimit:4;stroke-opacity:1;stroke-dasharray:none" />
    <text
       xml:space="preserve"
       style="font-size:6.06039047px;font-style:normal;font-variant:normal;font-weight:normal;font-stretch:normal;line-height:125%;letter-spacing:0px;word-spacing:0px;fill:#000000;fill-opacity:1;stroke:none;font-family:Nimbus Roman No9 L;-inkscape-font-specification:Nimbus Roman No9 L"
       x="180.00874"
       y="414.60709"
       id="text4181"
       sodipodi:linespacing="125%"><tspan
         sodipodi:role="line"
         id="tspan4183"
         x="180.00874"
         y="414.60709"
         style="font-size:4.04026031px">(Y F) = (F (Y F))</tspan></text>
    <g
       style="font-size:6.06039047px;font-style:normal;font-variant:normal;font-weight:normal;font-stretch:normal;line-height:125%;letter-spacing:0px;word-spacing:0px;fill:#000000;fill-opacity:1;stroke:none;font-family:Nimbus Roman No9 L;-inkscape-font-specification:Nimbus Roman No9 L"
       id="text4185">
      <path
         d="m 190.52468,430.62114 0.30184,0 c -10e-6,0.88315 -0.14534,1.52595 -0.43598,1.9284 -0.28508,0.40244 -0.64281,0.60367 -1.0732,0.60367 -0.35215,0 -0.69032,-0.13136 -1.0145,-0.39407 -0.3242,-0.26829 -0.61486,-0.98096 -0.87197,-2.138 l -0.72106,-3.25312 -2.49853,5.66781 -1.58463,0 3.58849,-7.73035 c -0.19005,-1.00053 -0.41922,-1.74114 -0.68752,-2.22185 -0.2683,-0.48069 -0.60088,-0.72104 -0.99773,-0.72105 -0.31861,1e-5 -0.59808,0.12298 -0.83843,0.36891 -0.23477,0.24036 -0.36612,0.61486 -0.39407,1.1235 l -0.30183,0 c 0.0168,-0.82166 0.18166,-1.47843 0.49467,-1.97032 0.31302,-0.49746 0.70428,-0.74619 1.17381,-0.74621 0.30183,2e-5 0.5869,0.12578 0.8552,0.3773 0.27388,0.24595 0.50865,0.67076 0.70428,1.27442 0.20122,0.59809 0.51144,1.84176 0.93066,3.73102 l 0.59529,2.65784 c 0.24035,1.10114 0.49188,1.83896 0.75459,2.21346 0.26829,0.36891 0.5869,0.55337 0.95581,0.55336 0.62603,1e-5 0.98096,-0.44157 1.06481,-1.32472"
         style="font-size:17.17110634px;fill:#000000"
         id="path3405" />
    </g>
    <path
       style="fill:none;stroke:#000000;stroke-width:0.50503254;stroke-linecap:butt;stroke-linejoin:round;stroke-miterlimit:4;stroke-opacity:1;stroke-dasharray:none"
       d="m 178.99472,424.4266 0,-16.58502 c 0,0 6.66362,5.40494 15.10422,0 8.44059,5.40494 15.10421,0 15.10421,0 l 0,16.58502 c 0.59232,15.25229 -13.40129,15.99269 -15.10421,18.51006 -1.70293,-2.51737 -15.69654,-3.25777 -15.10422,-18.51006 z"
       id="path4189"
       inkscape:connector-curvature="0"
       sodipodi:nodetypes="ccccccc" />
    <text
       sodipodi:linespacing="125%"
       id="text4193"
       y="421.62961"
       x="191.38618"
       style="font-size:3.12381101px;font-style:normal;font-variant:normal;font-weight:normal;font-stretch:normal;line-height:125%;letter-spacing:0px;word-spacing:0px;fill:#000000;fill-opacity:1;stroke:none;font-family:Nimbus Roman No9 L;-inkscape-font-specification:Nimbus Roman No9 L"
       xml:space="preserve"><tspan
         style="font-size:2.08254075px"
         y="421.62961"
         x="191.38618"
         id="tspan4195"
         sodipodi:role="line">(Y F) = (F (Y F))</tspan></text>
    <g
       style="font-size:3.12381101px;font-style:normal;font-variant:normal;font-weight:normal;font-stretch:normal;line-height:125%;letter-spacing:0px;word-spacing:0px;fill:#000000;fill-opacity:1;stroke:none;font-family:Nimbus Roman No9 L;-inkscape-font-specification:Nimbus Roman No9 L"
       id="text4197">
      <path
         d="m 196.8066,429.88402 0.15558,0 c -1e-5,0.45522 -0.0749,0.78654 -0.22473,0.99398 -0.14694,0.20745 -0.33133,0.31117 -0.55318,0.31117 -0.18151,0 -0.35582,-0.0677 -0.52292,-0.20312 -0.16711,-0.1383 -0.31692,-0.50564 -0.44945,-1.10203 l -0.37167,-1.67681 -1.28786,2.92145 -0.8168,0 1.84968,-3.98459 c -0.098,-0.51571 -0.21608,-0.89746 -0.35437,-1.14524 -0.1383,-0.24777 -0.30973,-0.37166 -0.51428,-0.37166 -0.16423,0 -0.30828,0.0634 -0.43217,0.19015 -0.12101,0.12389 -0.18872,0.31693 -0.20312,0.5791 l -0.15558,0 c 0.009,-0.42352 0.0936,-0.76205 0.25498,-1.01559 0.16134,-0.25641 0.36302,-0.38462 0.60503,-0.38463 0.15558,1e-5 0.30252,0.0648 0.44081,0.19448 0.14118,0.12677 0.26218,0.34574 0.36303,0.65689 0.10371,0.30829 0.26362,0.94933 0.4797,1.92315 l 0.30684,1.36997 c 0.12389,0.56758 0.25354,0.94789 0.38895,1.14092 0.13829,0.19016 0.30252,0.28523 0.49267,0.28523 0.32268,0 0.50564,-0.2276 0.54886,-0.68282"
         style="font-size:8.85079765px;fill:#000000"
         id="path3397" />
    </g>
    <path
       sodipodi:nodetypes="ccccccc"
       inkscape:connector-curvature="0"
       id="path4201"
       d="m 190.86351,426.69106 0,-8.5487 c 0,0 3.43475,2.78596 7.78542,0 4.35068,2.78596 7.78543,0 7.78543,0 l 0,8.5487 c 0.30531,7.86175 -6.90766,8.24339 -7.78543,9.54096 -0.87776,-1.29757 -8.09073,-1.67921 -7.78542,-9.54096 z"
       style="fill:none;stroke:#000000;stroke-width:0.26031759;stroke-linecap:butt;stroke-linejoin:round;stroke-miterlimit:4;stroke-opacity:1;stroke-dasharray:none" />
    <text
       xml:space="preserve"
       style="font-size:1.55697834px;font-style:normal;font-variant:normal;font-weight:normal;font-stretch:normal;line-height:125%;letter-spacing:0px;word-spacing:0px;fill:#000000;fill-opacity:1;stroke:none;font-family:Nimbus Roman No9 L;-inkscape-font-specification:Nimbus Roman No9 L"
       x="197.95447"
       y="425.82547"
       id="text4205"
       sodipodi:linespacing="125%"><tspan
         sodipodi:role="line"
         id="tspan4207"
         x="197.95447"
         y="425.82547"
         style="font-size:1.03798556px">(Y F) = (F (Y F))</tspan></text>
    <g
       style="font-size:1.55697834px;font-style:normal;font-variant:normal;font-weight:normal;font-stretch:normal;line-height:125%;letter-spacing:0px;word-spacing:0px;fill:#000000;fill-opacity:1;stroke:none;font-family:Nimbus Roman No9 L;-inkscape-font-specification:Nimbus Roman No9 L"
       id="text4209">
      <path
         d="m 200.65614,429.93964 0.0775,0 c 0,0.22689 -0.0373,0.39203 -0.11201,0.49542 -0.0732,0.1034 -0.16514,0.15509 -0.27571,0.15509 -0.0905,0 -0.17735,-0.0337 -0.26064,-0.10124 -0.0833,-0.0689 -0.15796,-0.25202 -0.22402,-0.54927 l -0.18524,-0.83576 -0.6419,1.45612 -0.40711,0 0.92192,-1.98601 c -0.0488,-0.25705 -0.1077,-0.44732 -0.17663,-0.57082 -0.0689,-0.12349 -0.15437,-0.18524 -0.25633,-0.18524 -0.0818,0 -0.15365,0.0316 -0.2154,0.0948 -0.0603,0.0618 -0.0941,0.15797 -0.10124,0.28864 l -0.0776,0 c 0.004,-0.21109 0.0467,-0.37982 0.12709,-0.50619 0.0804,-0.12781 0.18094,-0.19171 0.30156,-0.19171 0.0775,0 0.15079,0.0323 0.21971,0.0969 0.0704,0.0632 0.13068,0.17232 0.18094,0.32741 0.0517,0.15366 0.1314,0.47317 0.2391,0.95854 l 0.15293,0.68283 c 0.0617,0.28289 0.12637,0.47245 0.19387,0.56866 0.0689,0.0948 0.15078,0.14216 0.24556,0.14216 0.16083,0 0.25201,-0.11344 0.27356,-0.34033"
         style="font-size:4.41143894px;fill:#000000"
         id="path3389" />
    </g>
    <path
       style="fill:none;stroke:#000000;stroke-width:0.1297482;stroke-linecap:butt;stroke-linejoin:round;stroke-miterlimit:4;stroke-opacity:1;stroke-dasharray:none"
       d="m 197.69396,428.3482 0,-4.26086 c 0,0 1.71196,1.38858 3.88043,0 2.16848,1.38858 3.88044,0 3.88044,0 l 0,4.26086 c 0.15217,3.91848 -3.44294,4.1087 -3.88044,4.75544 -0.4375,-0.64674 -4.0326,-0.83696 -3.88043,-4.75544 z"
       id="path4213"
       inkscape:connector-curvature="0"
       sodipodi:nodetypes="ccccccc" />
    <text
       sodipodi:linespacing="125%"
       id="text4217"
       y="427.87085"
       x="201.08595"
       style="font-size:0.7686348px;font-style:normal;font-variant:normal;font-weight:normal;font-stretch:normal;line-height:125%;letter-spacing:0px;word-spacing:0px;fill:#000000;fill-opacity:1;stroke:none;font-family:Nimbus Roman No9 L;-inkscape-font-specification:Nimbus Roman No9 L"
       xml:space="preserve"><tspan
         style="font-size:0.51242322px"
         y="427.87085"
         x="201.08595"
         id="tspan4219"
         sodipodi:role="line">(Y F) = (F (Y F))</tspan></text>
    <g
       style="font-size:0.7686348px;font-style:normal;font-variant:normal;font-weight:normal;font-stretch:normal;line-height:125%;letter-spacing:0px;word-spacing:0px;fill:#000000;fill-opacity:1;stroke:none;font-family:Nimbus Roman No9 L;-inkscape-font-specification:Nimbus Roman No9 L"
       id="text4221">
      <path
         d="m 202.41969,429.90191 0.0383,0 c 0,0.11201 -0.0184,0.19353 -0.0553,0.24457 -0.0362,0.051 -0.0815,0.0766 -0.13612,0.0766 -0.0447,0 -0.0875,-0.0167 -0.12867,-0.05 -0.0411,-0.034 -0.078,-0.12442 -0.11059,-0.27116 l -0.0915,-0.41259 -0.31688,0.71884 -0.20098,0 0.45512,-0.98043 c -0.0241,-0.1269 -0.0532,-0.22083 -0.0872,-0.2818 -0.034,-0.061 -0.0762,-0.0914 -0.12655,-0.0914 -0.0404,0 -0.0759,0.0156 -0.10633,0.0468 -0.0298,0.0305 -0.0464,0.078 -0.05,0.14249 l -0.0383,0 c 0.002,-0.10421 0.023,-0.18751 0.0627,-0.24989 0.0397,-0.0631 0.0893,-0.0946 0.14887,-0.0946 0.0383,0 0.0744,0.0159 0.10846,0.0478 0.0347,0.0312 0.0645,0.0851 0.0893,0.16163 0.0255,0.0759 0.0649,0.23359 0.11803,0.47321 l 0.0755,0.33709 c 0.0305,0.13965 0.0624,0.23323 0.0957,0.28073 0.034,0.0468 0.0744,0.0702 0.12122,0.0702 0.0794,0 0.12442,-0.056 0.13505,-0.16801"
         style="font-size:2.17779851px;fill:#000000"
         id="path3381" />
    </g>
    <path
       sodipodi:nodetypes="ccccccc"
       inkscape:connector-curvature="0"
       id="path4225"
       d="m 200.95735,429.11626 0,-2.10347 c 0,0 0.84514,0.68551 1.91565,0 1.07052,0.68551 1.91566,0 1.91566,0 l 0,2.10347 c 0.0751,1.93444 -1.69968,2.02834 -1.91566,2.34762 -0.21598,-0.31928 -1.99078,-0.41318 -1.91565,-2.34762 z"
       style="fill:none;stroke:#000000;stroke-width:0.0640529;stroke-linecap:butt;stroke-linejoin:round;stroke-miterlimit:4;stroke-opacity:1;stroke-dasharray:none" />
    <text
       xml:space="preserve"
       style="font-size:0.38810664px;font-style:normal;font-variant:normal;font-weight:normal;font-stretch:normal;line-height:125%;letter-spacing:0px;word-spacing:0px;fill:#000000;fill-opacity:1;stroke:none;font-family:Nimbus Roman No9 L;-inkscape-font-specification:Nimbus Roman No9 L"
       x="202.64885"
       y="428.82535"
       id="text4229"
       sodipodi:linespacing="125%"><tspan
         sodipodi:role="line"
         id="tspan4231"
         x="202.64885"
         y="428.82535"
         style="font-size:0.25873777px">(Y F) = (F (Y F))</tspan></text>
    <g
       style="font-size:0.38810664px;font-style:normal;font-variant:normal;font-weight:normal;font-stretch:normal;line-height:125%;letter-spacing:0px;word-spacing:0px;fill:#000000;fill-opacity:1;stroke:none;font-family:Nimbus Roman No9 L;-inkscape-font-specification:Nimbus Roman No9 L"
       id="text4233">
      <path
         d="m 203.32228,429.85089 0.0193,0 c 0,0.0566 -0.009,0.0977 -0.0279,0.12349 -0.0182,0.0258 -0.0412,0.0387 -0.0687,0.0387 -0.0225,0 -0.0442,-0.008 -0.065,-0.0252 -0.0208,-0.0172 -0.0394,-0.0628 -0.0558,-0.13691 l -0.0462,-0.20833 -0.16001,0.36296 -0.10148,0 0.22981,-0.49505 c -0.0122,-0.0641 -0.0268,-0.1115 -0.044,-0.14228 -0.0172,-0.0308 -0.0385,-0.0462 -0.0639,-0.0462 -0.0204,0 -0.0383,0.008 -0.0537,0.0236 -0.015,0.0154 -0.0234,0.0394 -0.0252,0.0719 l -0.0193,0 c 0.001,-0.0526 0.0116,-0.0947 0.0317,-0.12618 0.02,-0.0319 0.0451,-0.0478 0.0752,-0.0478 0.0193,0 0.0376,0.008 0.0548,0.0242 0.0175,0.0157 0.0326,0.043 0.0451,0.0816 0.0129,0.0383 0.0327,0.11795 0.0596,0.23894 l 0.0381,0.17021 c 0.0154,0.0705 0.0315,0.11776 0.0483,0.14175 0.0172,0.0236 0.0376,0.0354 0.0612,0.0354 0.0401,0 0.0628,-0.0283 0.0682,-0.0848"
         style="font-size:1.09963548px;fill:#000000"
         id="path3373" />
    </g>
    <path
       style="fill:none;stroke:#000000;stroke-width:0.03234222;stroke-linecap:butt;stroke-linejoin:round;stroke-miterlimit:4;stroke-opacity:1;stroke-dasharray:none"
       d="m 202.58391,429.45419 0,-1.0621 c 0,0 0.42674,0.34613 0.96727,0 0.54054,0.34613 0.96728,0 0.96728,0 l 0,1.0621 c 0.0379,0.97676 -0.85822,1.02417 -0.96728,1.18539 -0.10905,-0.16122 -1.0052,-0.20863 -0.96727,-1.18539 z"
       id="path4237"
       inkscape:connector-curvature="0"
       sodipodi:nodetypes="ccccccc" />
    <text
       sodipodi:linespacing="125%"
       id="text4241"
       y="429.34482"
       x="203.45729"
       style="font-size:0.18822911px;font-style:normal;font-variant:normal;font-weight:normal;font-stretch:normal;line-height:125%;letter-spacing:0px;word-spacing:0px;fill:#000000;fill-opacity:1;stroke:none;font-family:Nimbus Roman No9 L;-inkscape-font-specification:Nimbus Roman No9 L"
       xml:space="preserve"><tspan
         style="font-size:0.12548608px"
         y="429.34482"
         x="203.45729"
         id="tspan4243"
         sodipodi:role="line">(Y F) = (F (Y F))</tspan></text>
    <g
       style="font-size:0.18822911px;font-style:normal;font-variant:normal;font-weight:normal;font-stretch:normal;line-height:125%;letter-spacing:0px;word-spacing:0px;fill:#000000;fill-opacity:1;stroke:none;font-family:Nimbus Roman No9 L;-inkscape-font-specification:Nimbus Roman No9 L"
       id="text4245">
      <path
         d="m 203.7839,429.84221 0.009,0 c 0,0.0274 -0.005,0.0474 -0.0135,0.0599 -0.009,0.0125 -0.02,0.0187 -0.0333,0.0187 -0.0109,0 -0.0214,-0.004 -0.0315,-0.0122 -0.0101,-0.008 -0.0191,-0.0305 -0.0271,-0.0664 l -0.0224,-0.10104 -0.0776,0.17604 -0.0492,0 0.11145,-0.2401 c -0.006,-0.0311 -0.013,-0.0541 -0.0213,-0.069 -0.008,-0.0149 -0.0187,-0.0224 -0.031,-0.0224 -0.01,0 -0.0186,0.004 -0.026,0.0114 -0.007,0.007 -0.0114,0.0191 -0.0122,0.0349 l -0.009,0 c 5.2e-4,-0.0255 0.006,-0.0459 0.0154,-0.0612 0.01,-0.0154 0.0219,-0.0232 0.0365,-0.0232 0.009,0 0.0182,0.004 0.0266,0.0117 0.009,0.008 0.0158,0.0208 0.0219,0.0396 0.006,0.0186 0.0159,0.0572 0.0289,0.11588 l 0.0185,0.0825 c 0.007,0.0342 0.0153,0.0571 0.0234,0.0688 0.008,0.0114 0.0182,0.0172 0.0297,0.0172 0.0195,0 0.0305,-0.0137 0.0331,-0.0411"
         style="font-size:0.53331584px;fill:#000000"
         id="path3365" />
    </g>
    <path
       sodipodi:nodetypes="ccccccc"
       inkscape:connector-curvature="0"
       id="path4249"
       d="m 203.4258,429.6498 0,-0.51511 c 0,0 0.20697,0.16787 0.46912,0 0.26216,0.16787 0.46912,0 0.46912,0 l 0,0.51511 c 0.0184,0.47372 -0.41623,0.49671 -0.46912,0.5749 -0.0529,-0.0782 -0.48751,-0.10118 -0.46912,-0.5749 z"
       style="fill:none;stroke:#000000;stroke-width:0.01568576;stroke-linecap:butt;stroke-linejoin:round;stroke-miterlimit:4;stroke-opacity:1;stroke-dasharray:none" />
    <text
       xml:space="preserve"
       style="font-size:0.08842224px;font-style:normal;font-variant:normal;font-weight:normal;font-stretch:normal;line-height:125%;letter-spacing:0px;word-spacing:0px;fill:#000000;fill-opacity:1;stroke:none;font-family:Nimbus Roman No9 L;-inkscape-font-specification:Nimbus Roman No9 L"
       x="203.86418"
       y="429.59842"
       id="text4253"
       sodipodi:linespacing="125%"><tspan
         sodipodi:role="line"
         id="tspan4255"
         x="203.86418"
         y="429.59842"
         style="font-size:0.05894816px">(Y F) = (F (Y F))</tspan></text>
    <g
       style="font-size:0.08842224px;font-style:normal;font-variant:normal;font-weight:normal;font-stretch:normal;line-height:125%;letter-spacing:0px;word-spacing:0px;fill:#000000;fill-opacity:1;stroke:none;font-family:Nimbus Roman No9 L;-inkscape-font-specification:Nimbus Roman No9 L"
       id="text4257">
      <path
         d="m 204.01761,429.83205 0.004,0 c 0,0.0129 -0.002,0.0223 -0.006,0.0281 -0.004,0.006 -0.009,0.009 -0.0157,0.009 -0.005,0 -0.0101,-0.002 -0.0148,-0.006 -0.005,-0.004 -0.009,-0.0143 -0.0127,-0.0312 l -0.0105,-0.0475 -0.0365,0.0827 -0.0231,0 0.0524,-0.11279 c -0.003,-0.0146 -0.006,-0.0254 -0.01,-0.0324 -0.004,-0.007 -0.009,-0.0105 -0.0146,-0.0105 -0.005,0 -0.009,0.002 -0.0122,0.005 -0.003,0.003 -0.005,0.009 -0.006,0.0164 l -0.004,0 c 2.5e-4,-0.012 0.003,-0.0216 0.007,-0.0288 0.005,-0.007 0.0103,-0.0109 0.0171,-0.0109 0.004,0 0.009,0.002 0.0125,0.006 0.004,0.004 0.007,0.01 0.0103,0.0186 0.003,0.009 0.007,0.0269 0.0136,0.0544 l 0.009,0.0388 c 0.004,0.0161 0.007,0.0268 0.011,0.0323 0.004,0.005 0.009,0.008 0.0139,0.008 0.009,0 0.0143,-0.006 0.0155,-0.0193"
         style="font-size:0.25052968px;fill:#000000"
         id="path3362" />
    </g>
    <path
       style="fill:none;stroke:#000000;stroke-width:0.00736852;stroke-linecap:butt;stroke-linejoin:round;stroke-miterlimit:4;stroke-opacity:1;stroke-dasharray:none"
       d="m 203.84939,429.74168 0,-0.24198 c 0,0 0.0972,0.0789 0.22038,0 0.12315,0.0789 0.22037,0 0.22037,0 l 0,0.24198 c 0.009,0.22254 -0.19553,0.23334 -0.22037,0.27007 -0.0249,-0.0367 -0.22902,-0.0475 -0.22038,-0.27007 z"
       id="path4261"
       inkscape:connector-curvature="0"
       sodipodi:nodetypes="ccccccc" />
    <text
       sodipodi:linespacing="125%"
       id="text4265"
       y="429.71896"
       x="204.06689"
       style="font-size:0.04007544px;font-style:normal;font-variant:normal;font-weight:normal;font-stretch:normal;line-height:125%;letter-spacing:0px;word-spacing:0px;fill:#000000;fill-opacity:1;stroke:none;font-family:Nimbus Roman No9 L;-inkscape-font-specification:Nimbus Roman No9 L"
       xml:space="preserve"><tspan
         style="font-size:0.02671696px"
         y="429.71896"
         x="204.06689"
         id="tspan4267"
         sodipodi:role="line">(Y F) = (F (Y F))</tspan></text>
    <g
       style="font-size:0.04007544px;font-style:normal;font-variant:normal;font-weight:normal;font-stretch:normal;line-height:125%;letter-spacing:0px;word-spacing:0px;fill:#000000;fill-opacity:1;stroke:none;font-family:Nimbus Roman No9 L;-inkscape-font-specification:Nimbus Roman No9 L"
       id="text4269">
      <path
         d="m 204.13644,429.82485 0.002,0 c 0,0.006 -9.6e-4,0.0101 -0.003,0.0127 -0.002,0.003 -0.004,0.004 -0.007,0.004 -0.002,0 -0.005,-8.7e-4 -0.007,-0.003 -0.002,-0.002 -0.004,-0.006 -0.006,-0.0141 l -0.005,-0.0215 -0.0165,0.0375 -0.0105,0 0.0237,-0.0511 c -0.001,-0.007 -0.003,-0.0115 -0.005,-0.0147 -0.002,-0.003 -0.004,-0.005 -0.007,-0.005 -0.002,0 -0.004,8.1e-4 -0.006,0.002 -0.002,0.002 -0.002,0.004 -0.003,0.007 l -0.002,0 c 1.1e-4,-0.005 0.001,-0.01 0.003,-0.013 0.002,-0.003 0.005,-0.005 0.008,-0.005 0.002,0 0.004,8.3e-4 0.006,0.002 0.002,0.002 0.003,0.004 0.005,0.008 0.001,0.004 0.003,0.0122 0.006,0.0247 l 0.004,0.0176 c 0.002,0.007 0.003,0.0122 0.005,0.0146 0.002,0.002 0.004,0.004 0.006,0.004 0.004,0 0.006,-0.003 0.007,-0.009"
         style="font-size:0.11354708px;fill:#000000"
         id="path3359" />
    </g>
    <path
       sodipodi:nodetypes="ccccccc"
       inkscape:connector-curvature="0"
       id="path4273"
       d="m 204.06019,429.78388 0,-0.10967 c 0,0 0.0441,0.0357 0.0999,0 0.0558,0.0357 0.0999,0 0.0999,0 l 0,0.10967 c 0.004,0.10086 -0.0886,0.10576 -0.0999,0.1224 -0.0113,-0.0166 -0.1038,-0.0215 -0.0999,-0.1224 z"
       style="fill:none;stroke:#000000;stroke-width:0.00333962;stroke-linecap:butt;stroke-linejoin:round;stroke-miterlimit:4;stroke-opacity:1;stroke-dasharray:none" />
    <text
       xml:space="preserve"
       style="font-size:0.02003768px;font-style:normal;font-variant:normal;font-weight:normal;font-stretch:normal;line-height:125%;letter-spacing:0px;word-spacing:0px;fill:#000000;fill-opacity:1;stroke:none;font-family:Nimbus Roman No9 L;-inkscape-font-specification:Nimbus Roman No9 L"
       x="204.14943"
       y="429.76575"
       id="text4277"
       sodipodi:linespacing="125%"><tspan
         sodipodi:role="line"
         id="tspan4279"
         x="204.14943"
         y="429.76575"
         style="font-size:0.01335845px">(Y F) = (F (Y F))</tspan></text>
    <g
       style="font-size:0.02003768px;font-style:normal;font-variant:normal;font-weight:normal;font-stretch:normal;line-height:125%;letter-spacing:0px;word-spacing:0px;fill:#000000;fill-opacity:1;stroke:none;font-family:Nimbus Roman No9 L;-inkscape-font-specification:Nimbus Roman No9 L"
       id="text4281">
      <path
         d="m 204.18419,429.81871 9.9e-4,0 c 0,0.003 -4.8e-4,0.005 -0.001,0.006 -9.4e-4,0.001 -0.002,0.002 -0.004,0.002 -0.001,0 -0.002,-4.4e-4 -0.003,-0.001 -0.001,-8.9e-4 -0.002,-0.003 -0.003,-0.007 l -0.002,-0.0108 -0.008,0.0187 -0.005,0 0.0119,-0.0256 c -6.3e-4,-0.003 -0.001,-0.006 -0.002,-0.007 -8.8e-4,-0.002 -0.002,-0.002 -0.003,-0.002 -0.001,0 -0.002,4.1e-4 -0.003,0.001 -7.7e-4,8e-4 -0.001,0.002 -0.001,0.004 l -0.001,0 c 6e-5,-0.003 6e-4,-0.005 0.002,-0.007 0.001,-0.002 0.002,-0.002 0.004,-0.002 0.001,0 0.002,4.2e-4 0.003,0.001 9e-4,8.1e-4 0.002,0.002 0.002,0.004 6.7e-4,0.002 0.002,0.006 0.003,0.0123 l 0.002,0.009 c 7.9e-4,0.004 0.002,0.006 0.002,0.007 8.9e-4,0.001 0.002,0.002 0.003,0.002 0.002,0 0.003,-0.001 0.004,-0.004"
         style="font-size:0.05677343px;fill:#000000"
         id="path3356" />
    </g>
    <path
       style="fill:none;stroke:#000000;stroke-width:0.00166981;stroke-linecap:butt;stroke-linejoin:round;stroke-miterlimit:4;stroke-opacity:1;stroke-dasharray:none"
       d="m 204.14607,429.79822 0,-0.0548 c 0,0 0.022,0.0179 0.0499,0 0.0279,0.0179 0.0499,0 0.0499,0 l 0,0.0548 c 0.002,0.0504 -0.0443,0.0529 -0.0499,0.0612 -0.006,-0.008 -0.0519,-0.0108 -0.0499,-0.0612 z"
       id="path4285"
       inkscape:connector-curvature="0"
       sodipodi:nodetypes="ccccccc" />
    <path
       sodipodi:type="arc"
       style="fill:none;stroke:#000000;stroke-width:0.79445159;stroke-linecap:square;stroke-linejoin:miter;stroke-miterlimit:4;stroke-opacity:1;stroke-dasharray:none"
       id="path3010"
       sodipodi:cx="141.42136"
       sodipodi:cy="420.3855"
       sodipodi:rx="98.884468"
       sodipodi:ry="98.884468"
       d="m 240.30582,420.3855 c 0,54.61238 -44.27208,98.88447 -98.88446,98.88447 -54.612388,0 -98.884472,-44.27209 -98.884472,-98.88447 0,-54.61239 44.272084,-98.88447 98.884472,-98.88447 54.61238,0 98.88446,44.27208 98.88446,98.88447 z"
       transform="matrix(1.2587299,0,0,1.2587299,-14.49285,-128.37748)" />
    <path
       sodipodi:type="arc"
       style="fill:#000000;fill-opacity:1;stroke:none"
       id="path4287"
       sodipodi:cx="76.721085"
       sodipodi:cy="343.48764"
       sodipodi:rx="3.1819806"
       sodipodi:ry="3.1819806"
       d="m 79.903065,343.48764 c 0,1.75736 -1.424621,3.18198 -3.18198,3.18198 -1.75736,0 -3.181981,-1.42462 -3.181981,-3.18198 0,-1.75736 1.424621,-3.18198 3.181981,-3.18198 1.757359,0 3.18198,1.42462 3.18198,3.18198 z"
       transform="translate(4.2426407,-4.9497475)" />
    <path
       transform="matrix(-1,0,0,1,322.79424,-4.9497475)"
       d="m 79.903065,343.48764 c 0,1.75736 -1.424621,3.18198 -3.18198,3.18198 -1.75736,0 -3.181981,-1.42462 -3.181981,-3.18198 0,-1.75736 1.424621,-3.18198 3.181981,-3.18198 1.757359,0 3.18198,1.42462 3.18198,3.18198 z"
       sodipodi:ry="3.1819806"
       sodipodi:rx="3.1819806"
       sodipodi:cy="343.48764"
       sodipodi:cx="76.721085"
       id="path4297"
       style="fill:#000000;fill-opacity:1;stroke:none"
       sodipodi:type="arc" />
  </g>
</svg>
